<svg width="201" height="227" viewBox="0 0 201 227" fill="none" xmlns="http://www.w3.org/2000/svg">
<path d="M165.75 65C165.75 100.899 136.649 130 100.75 130C64.8515 130 35.75 100.899 35.75 65C35.75 29.1015 64.8515 0 100.75 0C136.649 0 165.75 29.1015 165.75 65ZM48.75 65C48.75 93.7188 72.0312 117 100.75 117C129.469 117 152.75 93.7188 152.75 65C152.75 36.2812 129.469 13 100.75 13C72.0312 13 48.75 36.2812 48.75 65Z" fill="#D9D9D9" fill-opacity="0.2"/>
<path d="M126.394 117.58C127.967 120.807 126.636 124.731 123.268 125.975C116.12 128.615 108.546 129.983 100.892 130C91.0661 130.021 81.3631 127.815 72.5127 123.546C63.6624 119.278 55.8949 113.058 49.7945 105.355C43.694 97.6522 39.4193 88.6664 37.2918 79.0735C35.1644 69.4805 35.2395 59.5301 37.5115 49.9704C39.7835 40.4107 44.1933 31.4904 50.4093 23.8805C56.6253 16.2705 64.4858 10.1688 73.3996 6.03429C80.3431 2.81365 87.785 0.851904 95.3792 0.222255C98.9568 -0.0743645 101.823 2.91942 101.761 6.50873C101.699 10.098 98.7283 12.9154 95.1593 13.3014C89.5333 13.9098 84.0295 15.4341 78.8697 17.8274C71.7386 21.1351 65.4503 26.0164 60.4775 32.1044C55.5046 38.1923 51.9768 45.3285 50.1592 52.9763C48.3416 60.6241 48.2815 68.5844 49.9835 76.2588C51.6855 83.9331 55.1052 91.1217 59.9856 97.2841C64.8659 103.446 71.0799 108.422 78.1602 111.837C85.2405 115.252 93.0029 117.017 100.864 117C106.552 116.987 112.184 116.042 117.539 114.215C120.937 113.056 124.82 114.353 126.394 117.58Z" fill="url(#paint0_linear_587_814)"/>
<path d="M110.781 65V75.0309M110.781 57.4769V57.502M123.319 52.4615V77.5386C123.319 80.199 122.263 82.7504 120.382 84.6315C118.5 86.5127 115.949 87.5695 113.289 87.5695H88.2115C85.5511 87.5695 82.9997 86.5127 81.1186 84.6315C79.2374 82.7504 78.1806 80.199 78.1806 77.5386V52.4615C78.1806 49.8011 79.2374 47.2497 81.1186 45.3686C82.9997 43.4874 85.5511 42.4306 88.2115 42.4306H113.289C115.949 42.4306 118.5 43.4874 120.382 45.3686C122.263 47.2497 123.319 49.8011 123.319 52.4615Z" stroke="#959595" stroke-width="4" stroke-linecap="round" stroke-linejoin="round"/>
<path d="M88.2115 75.0309L91.0326 67.5078M91.0326 67.5078L95.7346 54.9692L100.437 67.5078M91.0326 67.5078H100.437M103.258 75.0309L100.437 67.5078" stroke="#959595" stroke-width="4" stroke-linecap="round" stroke-linejoin="round"/>
<path d="M78.58 170.185L77.83 171.115C78.25 170.905 78.7 170.745 79.18 170.635C79.67 170.515 80.195 170.455 80.755 170.455C81.575 170.455 82.37 170.59 83.14 170.86C83.92 171.13 84.605 171.54 85.195 172.09C85.785 172.63 86.26 173.305 86.62 174.115C86.98 174.925 87.16 175.87 87.16 176.95C87.16 177.96 86.975 178.91 86.605 179.8C86.235 180.68 85.715 181.45 85.045 182.11C84.375 182.77 83.565 183.29 82.615 183.67C81.675 184.05 80.635 184.24 79.495 184.24C78.335 184.24 77.295 184.055 76.375 183.685C75.455 183.315 74.67 182.8 74.02 182.14C73.37 181.47 72.87 180.67 72.52 179.74C72.18 178.8 72.01 177.76 72.01 176.62C72.01 175.6 72.215 174.555 72.625 173.485C73.045 172.405 73.69 171.285 74.56 170.125L79.735 163.18C79.915 162.94 80.175 162.735 80.515 162.565C80.865 162.395 81.265 162.31 81.715 162.31H85.015L78.58 170.185ZM79.42 181.21C80.01 181.21 80.55 181.11 81.04 180.91C81.54 180.71 81.965 180.43 82.315 180.07C82.675 179.71 82.955 179.29 83.155 178.81C83.355 178.32 83.455 177.79 83.455 177.22C83.455 176.6 83.36 176.045 83.17 175.555C82.98 175.055 82.71 174.635 82.36 174.295C82.01 173.945 81.59 173.68 81.1 173.5C80.61 173.32 80.07 173.23 79.48 173.23C78.89 173.23 78.355 173.33 77.875 173.53C77.395 173.73 76.985 174.01 76.645 174.37C76.305 174.72 76.04 175.14 75.85 175.63C75.66 176.11 75.565 176.63 75.565 177.19C75.565 177.79 75.645 178.34 75.805 178.84C75.975 179.33 76.22 179.75 76.54 180.1C76.87 180.45 77.275 180.725 77.755 180.925C78.235 181.115 78.79 181.21 79.42 181.21ZM104.802 173.155C104.802 175.045 104.597 176.69 104.187 178.09C103.787 179.48 103.227 180.63 102.507 181.54C101.797 182.45 100.952 183.13 99.9723 183.58C99.0023 184.02 97.9523 184.24 96.8223 184.24C95.6923 184.24 94.6423 184.02 93.6723 183.58C92.7123 183.13 91.8773 182.45 91.1673 181.54C90.4573 180.63 89.9023 179.48 89.5023 178.09C89.1023 176.69 88.9023 175.045 88.9023 173.155C88.9023 171.255 89.1023 169.61 89.5023 168.22C89.9023 166.83 90.4573 165.68 91.1673 164.77C91.8773 163.86 92.7123 163.185 93.6723 162.745C94.6423 162.295 95.6923 162.07 96.8223 162.07C97.9523 162.07 99.0023 162.295 99.9723 162.745C100.952 163.185 101.797 163.86 102.507 164.77C103.227 165.68 103.787 166.83 104.187 168.22C104.597 169.61 104.802 171.255 104.802 173.155ZM100.977 173.155C100.977 171.585 100.862 170.285 100.632 169.255C100.402 168.225 100.092 167.405 99.7023 166.795C99.3223 166.185 98.8823 165.76 98.3823 165.52C97.8823 165.27 97.3623 165.145 96.8223 165.145C96.2923 165.145 95.7773 165.27 95.2773 165.52C94.7873 165.76 94.3523 166.185 93.9723 166.795C93.5923 167.405 93.2873 168.225 93.0573 169.255C92.8373 170.285 92.7273 171.585 92.7273 173.155C92.7273 174.725 92.8373 176.025 93.0573 177.055C93.2873 178.085 93.5923 178.905 93.9723 179.515C94.3523 180.125 94.7873 180.555 95.2773 180.805C95.7773 181.045 96.2923 181.165 96.8223 181.165C97.3623 181.165 97.8823 181.045 98.3823 180.805C98.8823 180.555 99.3223 180.125 99.7023 179.515C100.092 178.905 100.402 178.085 100.632 177.055C100.862 176.025 100.977 174.725 100.977 173.155ZM116.73 167.56C116.73 168.38 116.59 169.12 116.31 169.78C116.04 170.44 115.675 171.005 115.215 171.475C114.755 171.935 114.22 172.29 113.61 172.54C113 172.79 112.365 172.915 111.705 172.915C110.985 172.915 110.32 172.79 109.71 172.54C109.1 172.29 108.57 171.935 108.12 171.475C107.68 171.005 107.335 170.44 107.085 169.78C106.835 169.12 106.71 168.38 106.71 167.56C106.71 166.72 106.835 165.96 107.085 165.28C107.335 164.6 107.68 164.025 108.12 163.555C108.57 163.085 109.1 162.725 109.71 162.475C110.32 162.215 110.985 162.085 111.705 162.085C112.425 162.085 113.09 162.215 113.7 162.475C114.32 162.725 114.855 163.085 115.305 163.555C115.755 164.025 116.105 164.6 116.355 165.28C116.605 165.96 116.73 166.72 116.73 167.56ZM113.88 167.56C113.88 166.98 113.82 166.495 113.7 166.105C113.59 165.715 113.435 165.4 113.235 165.16C113.045 164.92 112.815 164.75 112.545 164.65C112.285 164.54 112.005 164.485 111.705 164.485C111.405 164.485 111.125 164.54 110.865 164.65C110.605 164.75 110.38 164.92 110.19 165.16C110.01 165.4 109.865 165.715 109.755 166.105C109.645 166.495 109.59 166.98 109.59 167.56C109.59 168.12 109.645 168.59 109.755 168.97C109.865 169.34 110.01 169.64 110.19 169.87C110.38 170.1 110.605 170.265 110.865 170.365C111.125 170.465 111.405 170.515 111.705 170.515C112.005 170.515 112.285 170.465 112.545 170.365C112.815 170.265 113.045 170.1 113.235 169.87C113.435 169.64 113.59 169.34 113.7 168.97C113.82 168.59 113.88 168.12 113.88 167.56ZM123.945 162.895C124.075 162.745 124.225 162.61 124.395 162.49C124.575 162.37 124.825 162.31 125.145 162.31H127.845L111.735 183.445C111.605 183.605 111.45 183.74 111.27 183.85C111.09 183.95 110.87 184 110.61 184H107.85L123.945 162.895ZM128.985 178.9C128.985 179.72 128.845 180.46 128.565 181.12C128.295 181.78 127.93 182.345 127.47 182.815C127.01 183.275 126.475 183.635 125.865 183.895C125.255 184.145 124.62 184.27 123.96 184.27C123.24 184.27 122.575 184.145 121.965 183.895C121.355 183.635 120.825 183.275 120.375 182.815C119.935 182.345 119.59 181.78 119.34 181.12C119.09 180.46 118.965 179.72 118.965 178.9C118.965 178.06 119.09 177.3 119.34 176.62C119.59 175.94 119.935 175.365 120.375 174.895C120.825 174.425 121.355 174.065 121.965 173.815C122.575 173.555 123.24 173.425 123.96 173.425C124.68 173.425 125.345 173.555 125.955 173.815C126.575 174.065 127.105 174.425 127.545 174.895C127.995 175.365 128.345 175.94 128.595 176.62C128.855 177.3 128.985 178.06 128.985 178.9ZM126.12 178.9C126.12 178.32 126.065 177.835 125.955 177.445C125.845 177.055 125.69 176.74 125.49 176.5C125.3 176.26 125.07 176.09 124.8 175.99C124.54 175.88 124.26 175.825 123.96 175.825C123.66 175.825 123.38 175.88 123.12 175.99C122.86 176.09 122.635 176.26 122.445 176.5C122.255 176.74 122.105 177.055 121.995 177.445C121.895 177.835 121.845 178.32 121.845 178.9C121.845 179.46 121.895 179.93 121.995 180.31C122.105 180.69 122.255 180.995 122.445 181.225C122.635 181.455 122.86 181.62 123.12 181.72C123.38 181.82 123.66 181.87 123.96 181.87C124.26 181.87 124.54 181.82 124.8 181.72C125.07 181.62 125.3 181.455 125.49 181.225C125.69 180.995 125.845 180.69 125.955 180.31C126.065 179.93 126.12 179.46 126.12 178.9Z" fill="url(#paint1_linear_587_814)"/>
<path d="M21.35 215.448L19.238 209.676C19.134 209.42 19.026 209.116 18.914 208.764C18.802 208.412 18.69 208.032 18.578 207.624C18.474 208.032 18.366 208.416 18.254 208.776C18.142 209.128 18.034 209.436 17.93 209.7L15.83 215.448H21.35ZM27.05 222H24.554C24.274 222 24.046 221.932 23.87 221.796C23.694 221.652 23.562 221.476 23.474 221.268L22.178 217.728H14.99L13.694 221.268C13.63 221.452 13.506 221.62 13.322 221.772C13.138 221.924 12.91 222 12.638 222H10.118L16.946 204.648H20.234L27.05 222ZM35.8483 212.832C35.5123 212.424 35.1443 212.136 34.7443 211.968C34.3523 211.8 33.9283 211.716 33.4723 211.716C33.0243 211.716 32.6203 211.8 32.2603 211.968C31.9003 212.136 31.5923 212.392 31.3363 212.736C31.0803 213.072 30.8843 213.504 30.7483 214.032C30.6123 214.552 30.5443 215.168 30.5443 215.88C30.5443 216.6 30.6003 217.212 30.7123 217.716C30.8323 218.212 31.0003 218.62 31.2163 218.94C31.4323 219.252 31.6963 219.48 32.0083 219.624C32.3203 219.76 32.6683 219.828 33.0523 219.828C33.6683 219.828 34.1923 219.7 34.6243 219.444C35.0563 219.188 35.4643 218.824 35.8483 218.352V212.832ZM38.8123 204.168V222H37.0003C36.6083 222 36.3603 221.82 36.2563 221.46L36.0043 220.272C35.5083 220.84 34.9363 221.3 34.2883 221.652C33.6483 222.004 32.9003 222.18 32.0443 222.18C31.3723 222.18 30.7563 222.04 30.1963 221.76C29.6363 221.48 29.1523 221.076 28.7443 220.548C28.3443 220.012 28.0323 219.352 27.8083 218.568C27.5923 217.784 27.4843 216.888 27.4843 215.88C27.4843 214.968 27.6083 214.12 27.8563 213.336C28.1043 212.552 28.4603 211.872 28.9243 211.296C29.3883 210.72 29.9443 210.272 30.5923 209.952C31.2403 209.624 31.9683 209.46 32.7763 209.46C33.4643 209.46 34.0523 209.568 34.5403 209.784C35.0283 210 35.4643 210.292 35.8483 210.66V204.168H38.8123ZM47.1854 209.496C48.0974 209.496 48.9254 209.644 49.6694 209.94C50.4214 210.236 51.0614 210.656 51.5894 211.2C52.1254 211.744 52.5374 212.408 52.8254 213.192C53.1134 213.976 53.2574 214.852 53.2574 215.82C53.2574 216.796 53.1134 217.676 52.8254 218.46C52.5374 219.244 52.1254 219.912 51.5894 220.464C51.0614 221.016 50.4214 221.44 49.6694 221.736C48.9254 222.032 48.0974 222.18 47.1854 222.18C46.2654 222.18 45.4294 222.032 44.6774 221.736C43.9254 221.44 43.2814 221.016 42.7454 220.464C42.2174 219.912 41.8054 219.244 41.5094 218.46C41.2214 217.676 41.0774 216.796 41.0774 215.82C41.0774 214.852 41.2214 213.976 41.5094 213.192C41.8054 212.408 42.2174 211.744 42.7454 211.2C43.2814 210.656 43.9254 210.236 44.6774 209.94C45.4294 209.644 46.2654 209.496 47.1854 209.496ZM47.1854 219.9C48.2094 219.9 48.9654 219.556 49.4534 218.868C49.9494 218.18 50.1974 217.172 50.1974 215.844C50.1974 214.516 49.9494 213.504 49.4534 212.808C48.9654 212.112 48.2094 211.764 47.1854 211.764C46.1454 211.764 45.3734 212.116 44.8694 212.82C44.3734 213.516 44.1254 214.524 44.1254 215.844C44.1254 217.164 44.3734 218.172 44.8694 218.868C45.3734 219.556 46.1454 219.9 47.1854 219.9ZM58.4827 218.808C58.8187 219.216 59.1827 219.504 59.5747 219.672C59.9747 219.84 60.3947 219.924 60.8347 219.924C61.2907 219.924 61.6987 219.844 62.0587 219.684C62.4267 219.516 62.7387 219.26 62.9947 218.916C63.2507 218.564 63.4467 218.12 63.5827 217.584C63.7187 217.04 63.7867 216.392 63.7867 215.64C63.7867 214.288 63.5627 213.312 63.1147 212.712C62.6667 212.104 62.0227 211.8 61.1827 211.8C60.6147 211.8 60.1187 211.932 59.6947 212.196C59.2707 212.452 58.8667 212.816 58.4827 213.288V218.808ZM58.4827 211.2C58.9787 210.68 59.5267 210.268 60.1267 209.964C60.7347 209.652 61.4267 209.496 62.2027 209.496C62.9147 209.496 63.5547 209.636 64.1227 209.916C64.6987 210.196 65.1867 210.6 65.5867 211.128C65.9947 211.648 66.3067 212.28 66.5227 213.024C66.7387 213.768 66.8467 214.604 66.8467 215.532C66.8467 216.532 66.7227 217.44 66.4747 218.256C66.2267 219.072 65.8707 219.772 65.4067 220.356C64.9507 220.932 64.3987 221.38 63.7507 221.7C63.1027 222.02 62.3827 222.18 61.5907 222.18C61.2067 222.18 60.8587 222.14 60.5467 222.06C60.2347 221.988 59.9467 221.884 59.6827 221.748C59.4187 221.612 59.1747 221.448 58.9507 221.256C58.7347 221.056 58.5267 220.836 58.3267 220.596L58.1947 221.424C58.1467 221.632 58.0627 221.78 57.9427 221.868C57.8307 221.956 57.6747 222 57.4747 222H55.5187V204.168H58.4827V211.2ZM77.0679 214.428C77.0679 214.044 77.0119 213.684 76.8999 213.348C76.7959 213.004 76.6359 212.704 76.4199 212.448C76.2039 212.192 75.9279 211.992 75.5919 211.848C75.2639 211.696 74.8799 211.62 74.4399 211.62C73.5839 211.62 72.9079 211.864 72.4119 212.352C71.9239 212.84 71.6119 213.532 71.4759 214.428H77.0679ZM71.4159 216.216C71.4639 216.848 71.5759 217.396 71.7519 217.86C71.9279 218.316 72.1599 218.696 72.4479 219C72.7359 219.296 73.0759 219.52 73.4679 219.672C73.8679 219.816 74.3079 219.888 74.7879 219.888C75.2679 219.888 75.6799 219.832 76.0239 219.72C76.3759 219.608 76.6799 219.484 76.9359 219.348C77.1999 219.212 77.4279 219.088 77.6199 218.976C77.8199 218.864 78.0119 218.808 78.1959 218.808C78.4439 218.808 78.6279 218.9 78.7479 219.084L79.5999 220.164C79.2719 220.548 78.9039 220.872 78.4959 221.136C78.0879 221.392 77.6599 221.6 77.2119 221.76C76.7719 221.912 76.3199 222.02 75.8559 222.084C75.3999 222.148 74.9559 222.18 74.5239 222.18C73.6679 222.18 72.8719 222.04 72.1359 221.76C71.3999 221.472 70.7599 221.052 70.2159 220.5C69.6719 219.94 69.2439 219.252 68.9319 218.436C68.6199 217.612 68.4639 216.66 68.4639 215.58C68.4639 214.74 68.5999 213.952 68.8719 213.216C69.1439 212.472 69.5319 211.828 70.0359 211.284C70.5479 210.732 71.1679 210.296 71.8959 209.976C72.6319 209.656 73.4599 209.496 74.3799 209.496C75.1559 209.496 75.8719 209.62 76.5279 209.868C77.1839 210.116 77.7479 210.48 78.2199 210.96C78.6919 211.432 79.0599 212.016 79.3239 212.712C79.5959 213.4 79.7319 214.188 79.7319 215.076C79.7319 215.524 79.6839 215.828 79.5879 215.988C79.4919 216.14 79.3079 216.216 79.0359 216.216H71.4159ZM91.5001 222H88.2601V204.648H91.5001V222ZM97.7296 204.168V222H94.7656V204.168H97.7296ZM103.683 204.168V222H100.719V204.168H103.683ZM117.244 209.688V222H115.432C115.04 222 114.792 221.82 114.688 221.46L114.484 220.476C113.98 220.988 113.424 221.404 112.816 221.724C112.208 222.036 111.492 222.192 110.668 222.192C109.996 222.192 109.4 222.08 108.88 221.856C108.368 221.624 107.936 221.3 107.584 220.884C107.232 220.468 106.964 219.976 106.78 219.408C106.604 218.832 106.516 218.2 106.516 217.512V209.688H109.48V217.512C109.48 218.264 109.652 218.848 109.996 219.264C110.348 219.672 110.872 219.876 111.568 219.876C112.08 219.876 112.56 219.764 113.008 219.54C113.456 219.308 113.88 218.992 114.28 218.592V209.688H117.244ZM127.695 212.088C127.615 212.216 127.531 212.308 127.443 212.364C127.355 212.412 127.243 212.436 127.107 212.436C126.963 212.436 126.807 212.396 126.639 212.316C126.479 212.236 126.291 212.148 126.075 212.052C125.859 211.948 125.611 211.856 125.331 211.776C125.059 211.696 124.735 211.656 124.359 211.656C123.775 211.656 123.315 211.78 122.979 212.028C122.651 212.276 122.487 212.6 122.487 213C122.487 213.264 122.571 213.488 122.739 213.672C122.915 213.848 123.143 214.004 123.423 214.14C123.711 214.276 124.035 214.4 124.395 214.512C124.755 214.616 125.119 214.732 125.487 214.86C125.863 214.988 126.231 215.136 126.591 215.304C126.951 215.464 127.271 215.672 127.551 215.928C127.839 216.176 128.067 216.476 128.235 216.828C128.411 217.18 128.499 217.604 128.499 218.1C128.499 218.692 128.391 219.24 128.175 219.744C127.967 220.24 127.655 220.672 127.239 221.04C126.823 221.4 126.307 221.684 125.691 221.892C125.083 222.092 124.379 222.192 123.579 222.192C123.155 222.192 122.739 222.152 122.331 222.072C121.931 222 121.543 221.896 121.167 221.76C120.799 221.624 120.455 221.464 120.135 221.28C119.823 221.096 119.547 220.896 119.307 220.68L119.991 219.552C120.079 219.416 120.183 219.312 120.303 219.24C120.423 219.168 120.575 219.132 120.759 219.132C120.943 219.132 121.115 219.184 121.275 219.288C121.443 219.392 121.635 219.504 121.851 219.624C122.067 219.744 122.319 219.856 122.607 219.96C122.903 220.064 123.275 220.116 123.723 220.116C124.075 220.116 124.375 220.076 124.623 219.996C124.879 219.908 125.087 219.796 125.247 219.66C125.415 219.524 125.535 219.368 125.607 219.192C125.687 219.008 125.727 218.82 125.727 218.628C125.727 218.34 125.639 218.104 125.463 217.92C125.295 217.736 125.067 217.576 124.779 217.44C124.499 217.304 124.175 217.184 123.807 217.08C123.447 216.968 123.075 216.848 122.691 216.72C122.315 216.592 121.943 216.444 121.575 216.276C121.215 216.1 120.891 215.88 120.603 215.616C120.323 215.352 120.095 215.028 119.919 214.644C119.751 214.26 119.667 213.796 119.667 213.252C119.667 212.748 119.767 212.268 119.967 211.812C120.167 211.356 120.459 210.96 120.843 210.624C121.235 210.28 121.719 210.008 122.295 209.808C122.879 209.6 123.551 209.496 124.311 209.496C125.159 209.496 125.931 209.636 126.627 209.916C127.323 210.196 127.903 210.564 128.367 211.02L127.695 212.088ZM134.834 222.192C133.762 222.192 132.938 221.892 132.362 221.292C131.794 220.684 131.51 219.848 131.51 218.784V211.908H130.25C130.09 211.908 129.954 211.856 129.842 211.752C129.73 211.648 129.674 211.492 129.674 211.284V210.108L131.654 209.784L132.278 206.424C132.318 206.264 132.394 206.14 132.506 206.052C132.618 205.964 132.762 205.92 132.938 205.92H134.474V209.796H137.762V211.908H134.474V218.58C134.474 218.964 134.566 219.264 134.75 219.48C134.942 219.696 135.202 219.804 135.53 219.804C135.714 219.804 135.866 219.784 135.986 219.744C136.114 219.696 136.222 219.648 136.31 219.6C136.406 219.552 136.49 219.508 136.562 219.468C136.634 219.42 136.706 219.396 136.778 219.396C136.866 219.396 136.938 219.42 136.994 219.468C137.05 219.508 137.11 219.572 137.174 219.66L138.062 221.1C137.63 221.46 137.134 221.732 136.574 221.916C136.014 222.1 135.434 222.192 134.834 222.192ZM142.455 211.824C142.839 211.088 143.295 210.512 143.823 210.096C144.351 209.672 144.975 209.46 145.695 209.46C146.263 209.46 146.719 209.584 147.063 209.832L146.871 212.052C146.831 212.196 146.771 212.3 146.691 212.364C146.619 212.42 146.519 212.448 146.391 212.448C146.271 212.448 146.091 212.428 145.851 212.388C145.619 212.348 145.391 212.328 145.167 212.328C144.839 212.328 144.547 212.376 144.291 212.472C144.035 212.568 143.803 212.708 143.595 212.892C143.395 213.068 143.215 213.284 143.055 213.54C142.903 213.796 142.759 214.088 142.623 214.416V222H139.659V209.688H141.399C141.703 209.688 141.915 209.744 142.035 209.856C142.155 209.96 142.235 210.152 142.275 210.432L142.455 211.824ZM154.952 216.744C154.096 216.784 153.376 216.86 152.792 216.972C152.208 217.076 151.74 217.212 151.388 217.38C151.036 217.548 150.784 217.744 150.632 217.968C150.48 218.192 150.404 218.436 150.404 218.7C150.404 219.22 150.556 219.592 150.86 219.816C151.172 220.04 151.576 220.152 152.072 220.152C152.68 220.152 153.204 220.044 153.644 219.828C154.092 219.604 154.528 219.268 154.952 218.82V216.744ZM148.16 211.404C149.576 210.108 151.28 209.46 153.272 209.46C153.992 209.46 154.636 209.58 155.204 209.82C155.772 210.052 156.252 210.38 156.644 210.804C157.036 211.22 157.332 211.72 157.532 212.304C157.74 212.888 157.844 213.528 157.844 214.224V222H156.5C156.22 222 156.004 221.96 155.852 221.88C155.7 221.792 155.58 221.62 155.492 221.364L155.228 220.476C154.916 220.756 154.612 221.004 154.316 221.22C154.02 221.428 153.712 221.604 153.392 221.748C153.072 221.892 152.728 222 152.36 222.072C152 222.152 151.6 222.192 151.16 222.192C150.64 222.192 150.16 222.124 149.72 221.988C149.28 221.844 148.9 221.632 148.58 221.352C148.26 221.072 148.012 220.724 147.836 220.308C147.66 219.892 147.572 219.408 147.572 218.856C147.572 218.544 147.624 218.236 147.728 217.932C147.832 217.62 148 217.324 148.232 217.044C148.472 216.764 148.78 216.5 149.156 216.252C149.532 216.004 149.992 215.788 150.536 215.604C151.088 215.42 151.728 215.272 152.456 215.16C153.184 215.04 154.016 214.968 154.952 214.944V214.224C154.952 213.4 154.776 212.792 154.424 212.4C154.072 212 153.564 211.8 152.9 211.8C152.42 211.8 152.02 211.856 151.7 211.968C151.388 212.08 151.112 212.208 150.872 212.352C150.632 212.488 150.412 212.612 150.212 212.724C150.02 212.836 149.804 212.892 149.564 212.892C149.356 212.892 149.18 212.84 149.036 212.736C148.892 212.624 148.776 212.496 148.688 212.352L148.16 211.404ZM164.576 222.192C163.504 222.192 162.68 221.892 162.104 221.292C161.536 220.684 161.252 219.848 161.252 218.784V211.908H159.992C159.832 211.908 159.696 211.856 159.584 211.752C159.472 211.648 159.416 211.492 159.416 211.284V210.108L161.396 209.784L162.02 206.424C162.06 206.264 162.136 206.14 162.248 206.052C162.36 205.964 162.504 205.92 162.68 205.92H164.216V209.796H167.504V211.908H164.216V218.58C164.216 218.964 164.308 219.264 164.492 219.48C164.684 219.696 164.944 219.804 165.272 219.804C165.456 219.804 165.608 219.784 165.728 219.744C165.856 219.696 165.964 219.648 166.052 219.6C166.148 219.552 166.232 219.508 166.304 219.468C166.376 219.42 166.448 219.396 166.52 219.396C166.608 219.396 166.68 219.42 166.736 219.468C166.792 219.508 166.852 219.572 166.916 219.66L167.804 221.1C167.372 221.46 166.876 221.732 166.316 221.916C165.756 222.1 165.176 222.192 164.576 222.192ZM174.756 209.496C175.668 209.496 176.496 209.644 177.24 209.94C177.992 210.236 178.632 210.656 179.16 211.2C179.696 211.744 180.108 212.408 180.396 213.192C180.684 213.976 180.828 214.852 180.828 215.82C180.828 216.796 180.684 217.676 180.396 218.46C180.108 219.244 179.696 219.912 179.16 220.464C178.632 221.016 177.992 221.44 177.24 221.736C176.496 222.032 175.668 222.18 174.756 222.18C173.836 222.18 173 222.032 172.248 221.736C171.496 221.44 170.852 221.016 170.316 220.464C169.788 219.912 169.376 219.244 169.08 218.46C168.792 217.676 168.648 216.796 168.648 215.82C168.648 214.852 168.792 213.976 169.08 213.192C169.376 212.408 169.788 211.744 170.316 211.2C170.852 210.656 171.496 210.236 172.248 209.94C173 209.644 173.836 209.496 174.756 209.496ZM174.756 219.9C175.78 219.9 176.536 219.556 177.024 218.868C177.52 218.18 177.768 217.172 177.768 215.844C177.768 214.516 177.52 213.504 177.024 212.808C176.536 212.112 175.78 211.764 174.756 211.764C173.716 211.764 172.944 212.116 172.44 212.82C171.944 213.516 171.696 214.524 171.696 215.844C171.696 217.164 171.944 218.172 172.44 218.868C172.944 219.556 173.716 219.9 174.756 219.9ZM185.885 211.824C186.269 211.088 186.725 210.512 187.253 210.096C187.781 209.672 188.405 209.46 189.125 209.46C189.693 209.46 190.149 209.584 190.493 209.832L190.301 212.052C190.261 212.196 190.201 212.3 190.121 212.364C190.049 212.42 189.949 212.448 189.821 212.448C189.701 212.448 189.521 212.428 189.281 212.388C189.049 212.348 188.821 212.328 188.597 212.328C188.269 212.328 187.977 212.376 187.721 212.472C187.465 212.568 187.233 212.708 187.025 212.892C186.825 213.068 186.645 213.284 186.485 213.54C186.333 213.796 186.189 214.088 186.053 214.416V222H183.089V209.688H184.829C185.133 209.688 185.345 209.744 185.465 209.856C185.585 209.96 185.665 210.152 185.705 210.432L185.885 211.824Z" fill="#959595"/>
<defs>
<linearGradient id="paint0_linear_587_814" x1="39.1512" y1="12.2641" x2="166.356" y2="21.9712" gradientUnits="userSpaceOnUse">
<stop stop-color="#FD6F00"/>
<stop offset="1" stop-color="#E46400"/>
</linearGradient>
<linearGradient id="paint1_linear_587_814" x1="72.3198" y1="157.396" x2="130.432" y2="164.787" gradientUnits="userSpaceOnUse">
<stop stop-color="#FD6F00"/>
<stop offset="1" stop-color="#E46400"/>
</linearGradient>
</defs>
</svg>
