<svg width="201" height="227" viewBox="0 0 201 227" fill="none" xmlns="http://www.w3.org/2000/svg">
<path d="M165.5 65C165.5 100.899 136.399 130 100.5 130C64.6015 130 35.5 100.899 35.5 65C35.5 29.1015 64.6015 0 100.5 0C136.399 0 165.5 29.1015 165.5 65ZM48.5 65C48.5 93.7188 71.7812 117 100.5 117C129.219 117 152.5 93.7188 152.5 65C152.5 36.2812 129.219 13 100.5 13C71.7812 13 48.5 36.2812 48.5 65Z" fill="#D9D9D9" fill-opacity="0.2"/>
<path d="M159 65C162.59 65 165.534 67.9175 165.175 71.4894C164.115 82.0523 160.48 92.2304 154.546 101.112C147.403 111.801 137.252 120.132 125.374 125.052C113.497 129.972 100.428 131.259 87.8191 128.751C75.2104 126.243 63.6285 120.052 54.5381 110.962C45.4476 101.872 39.257 90.2896 36.749 77.6809C34.2409 65.0721 35.5281 52.0028 40.4478 40.1256C45.3675 28.2484 53.6987 18.0968 64.3879 10.9545C73.2696 5.01996 83.4477 1.38453 94.0106 0.324705C97.5825 -0.0336793 100.5 2.91015 100.5 6.5C100.5 10.0899 97.5786 12.9581 94.0168 13.4057C86.0294 14.4094 78.3529 17.2583 71.6103 21.7636C63.059 27.4774 56.394 35.5987 52.4583 45.1005C48.5225 54.6022 47.4927 65.0577 49.4992 75.1447C51.5056 85.2317 56.4581 94.4972 63.7304 101.77C71.0028 109.042 80.2683 113.994 90.3553 116.001C100.442 118.007 110.898 116.977 120.4 113.042C129.901 109.106 138.023 102.441 143.736 93.8896C148.242 87.1471 151.091 79.4706 152.094 71.4832C152.542 67.9214 155.41 65 159 65Z" fill="url(#paint0_linear_587_803)"/>
<path d="M123.07 52.4615V77.5386C123.07 80.199 122.013 82.7504 120.132 84.6315C118.25 86.5127 115.699 87.5695 113.039 87.5695H87.9615C85.3011 87.5695 82.7498 86.5127 80.8686 84.6315C78.9875 82.7504 77.9306 80.199 77.9306 77.5386V52.4615C77.9306 49.8011 78.9875 47.2497 80.8686 45.3686C82.7498 43.4874 85.3011 42.4306 87.9615 42.4306H113.039C115.699 42.4306 118.25 43.4874 120.132 45.3686C122.013 47.2497 123.07 49.8011 123.07 52.4615Z" stroke="#959595" stroke-width="4" stroke-linecap="round" stroke-linejoin="round"/>
<path d="M87.9615 75.0309V65M87.9615 65V54.9692H92.9769C94.3071 54.9692 95.5828 55.4976 96.5234 56.4382C97.4639 57.3787 97.9924 58.6544 97.9924 59.9846C97.9924 61.3148 97.4639 62.5905 96.5234 63.5311C95.5828 64.4716 94.3071 65 92.9769 65H87.9615ZM113.039 62.4923C112.271 60.9551 110.699 59.9846 108.981 59.9846H108.023C107.026 59.9846 106.069 60.3809 105.363 61.0864C104.658 61.7918 104.262 62.7486 104.262 63.7462C104.262 64.7438 104.658 65.7006 105.363 66.406C106.069 67.1115 107.026 67.5078 108.023 67.5078H109.277C110.275 67.5078 111.231 67.9041 111.937 68.6095C112.642 69.3149 113.039 70.2717 113.039 71.2693C113.039 72.267 112.642 73.2237 111.937 73.9292C111.231 74.6346 110.275 75.0309 109.277 75.0309H108.319C107.477 75.0309 106.651 74.7963 105.934 74.3534C105.218 73.9105 104.638 73.2767 104.262 72.5232" stroke="#959595" stroke-width="4" stroke-linecap="round" stroke-linejoin="round"/>
<path d="M79.2 181.345C79.81 181.345 80.345 181.26 80.805 181.09C81.265 180.91 81.65 180.665 81.96 180.355C82.28 180.045 82.52 179.675 82.68 179.245C82.84 178.815 82.92 178.35 82.92 177.85C82.92 176.66 82.59 175.76 81.93 175.15C81.27 174.54 80.36 174.235 79.2 174.235C78.04 174.235 77.13 174.54 76.47 175.15C75.81 175.76 75.48 176.66 75.48 177.85C75.48 178.35 75.56 178.815 75.72 179.245C75.88 179.675 76.115 180.045 76.425 180.355C76.745 180.665 77.135 180.91 77.595 181.09C78.055 181.26 78.59 181.345 79.2 181.345ZM79.2 164.86C78.65 164.86 78.175 164.945 77.775 165.115C77.375 165.285 77.04 165.515 76.77 165.805C76.51 166.085 76.315 166.41 76.185 166.78C76.065 167.15 76.005 167.54 76.005 167.95C76.005 168.38 76.055 168.8 76.155 169.21C76.265 169.61 76.445 169.97 76.695 170.29C76.945 170.6 77.275 170.85 77.685 171.04C78.095 171.23 78.6 171.325 79.2 171.325C79.8 171.325 80.305 171.23 80.715 171.04C81.125 170.85 81.455 170.6 81.705 170.29C81.955 169.97 82.13 169.61 82.23 169.21C82.34 168.8 82.395 168.38 82.395 167.95C82.395 167.54 82.33 167.15 82.2 166.78C82.07 166.41 81.875 166.085 81.615 165.805C81.355 165.515 81.025 165.285 80.625 165.115C80.225 164.945 79.75 164.86 79.2 164.86ZM82.86 172.69C84.18 173.12 85.155 173.78 85.785 174.67C86.415 175.55 86.73 176.63 86.73 177.91C86.73 178.87 86.545 179.74 86.175 180.52C85.815 181.3 85.305 181.965 84.645 182.515C83.985 183.065 83.19 183.49 82.26 183.79C81.34 184.09 80.32 184.24 79.2 184.24C78.08 184.24 77.055 184.09 76.125 183.79C75.205 183.49 74.415 183.065 73.755 182.515C73.095 181.965 72.58 181.3 72.21 180.52C71.85 179.74 71.67 178.87 71.67 177.91C71.67 176.63 71.985 175.55 72.615 174.67C73.245 173.78 74.22 173.12 75.54 172.69C74.49 172.25 73.7 171.625 73.17 170.815C72.65 170.005 72.39 169.03 72.39 167.89C72.39 167.07 72.555 166.305 72.885 165.595C73.225 164.885 73.695 164.27 74.295 163.75C74.895 163.22 75.61 162.81 76.44 162.52C77.28 162.22 78.2 162.07 79.2 162.07C80.2 162.07 81.115 162.22 81.945 162.52C82.785 162.81 83.505 163.22 84.105 163.75C84.705 164.27 85.17 164.885 85.5 165.595C85.84 166.305 86.01 167.07 86.01 167.89C86.01 169.03 85.745 170.005 85.215 170.815C84.695 171.625 83.91 172.25 82.86 172.69ZM93.9923 170.185C94.4723 170.085 94.9323 170.015 95.3723 169.975C95.8123 169.925 96.2373 169.9 96.6473 169.9C97.7873 169.9 98.7923 170.07 99.6623 170.41C100.532 170.75 101.262 171.22 101.852 171.82C102.442 172.42 102.887 173.125 103.187 173.935C103.487 174.735 103.637 175.6 103.637 176.53C103.637 177.68 103.432 178.73 103.022 179.68C102.622 180.63 102.062 181.445 101.342 182.125C100.622 182.795 99.7673 183.315 98.7773 183.685C97.7973 184.055 96.7273 184.24 95.5673 184.24C94.8873 184.24 94.2423 184.17 93.6323 184.03C93.0223 183.89 92.4473 183.705 91.9073 183.475C91.3773 183.235 90.8823 182.965 90.4223 182.665C89.9723 182.355 89.5673 182.03 89.2073 181.69L90.3473 180.115C90.5873 179.775 90.9023 179.605 91.2923 179.605C91.5423 179.605 91.7973 179.685 92.0573 179.845C92.3173 180.005 92.6123 180.18 92.9423 180.37C93.2823 180.56 93.6773 180.735 94.1273 180.895C94.5873 181.055 95.1373 181.135 95.7773 181.135C96.4573 181.135 97.0573 181.025 97.5773 180.805C98.0973 180.585 98.5273 180.28 98.8673 179.89C99.2173 179.49 99.4773 179.02 99.6473 178.48C99.8273 177.93 99.9173 177.335 99.9173 176.695C99.9173 175.515 99.5723 174.595 98.8823 173.935C98.2023 173.265 97.1923 172.93 95.8523 172.93C94.8223 172.93 93.7673 173.12 92.6873 173.5L90.3773 172.84L92.1773 162.31H102.887V163.885C102.887 164.415 102.722 164.845 102.392 165.175C102.062 165.505 101.502 165.67 100.712 165.67H94.7573L93.9923 170.185ZM116.48 167.56C116.48 168.38 116.34 169.12 116.06 169.78C115.79 170.44 115.425 171.005 114.965 171.475C114.505 171.935 113.97 172.29 113.36 172.54C112.75 172.79 112.115 172.915 111.455 172.915C110.735 172.915 110.07 172.79 109.46 172.54C108.85 172.29 108.32 171.935 107.87 171.475C107.43 171.005 107.085 170.44 106.835 169.78C106.585 169.12 106.46 168.38 106.46 167.56C106.46 166.72 106.585 165.96 106.835 165.28C107.085 164.6 107.43 164.025 107.87 163.555C108.32 163.085 108.85 162.725 109.46 162.475C110.07 162.215 110.735 162.085 111.455 162.085C112.175 162.085 112.84 162.215 113.45 162.475C114.07 162.725 114.605 163.085 115.055 163.555C115.505 164.025 115.855 164.6 116.105 165.28C116.355 165.96 116.48 166.72 116.48 167.56ZM113.63 167.56C113.63 166.98 113.57 166.495 113.45 166.105C113.34 165.715 113.185 165.4 112.985 165.16C112.795 164.92 112.565 164.75 112.295 164.65C112.035 164.54 111.755 164.485 111.455 164.485C111.155 164.485 110.875 164.54 110.615 164.65C110.355 164.75 110.13 164.92 109.94 165.16C109.76 165.4 109.615 165.715 109.505 166.105C109.395 166.495 109.34 166.98 109.34 167.56C109.34 168.12 109.395 168.59 109.505 168.97C109.615 169.34 109.76 169.64 109.94 169.87C110.13 170.1 110.355 170.265 110.615 170.365C110.875 170.465 111.155 170.515 111.455 170.515C111.755 170.515 112.035 170.465 112.295 170.365C112.565 170.265 112.795 170.1 112.985 169.87C113.185 169.64 113.34 169.34 113.45 168.97C113.57 168.59 113.63 168.12 113.63 167.56ZM123.695 162.895C123.825 162.745 123.975 162.61 124.145 162.49C124.325 162.37 124.575 162.31 124.895 162.31H127.595L111.485 183.445C111.355 183.605 111.2 183.74 111.02 183.85C110.84 183.95 110.62 184 110.36 184H107.6L123.695 162.895ZM128.735 178.9C128.735 179.72 128.595 180.46 128.315 181.12C128.045 181.78 127.68 182.345 127.22 182.815C126.76 183.275 126.225 183.635 125.615 183.895C125.005 184.145 124.37 184.27 123.71 184.27C122.99 184.27 122.325 184.145 121.715 183.895C121.105 183.635 120.575 183.275 120.125 182.815C119.685 182.345 119.34 181.78 119.09 181.12C118.84 180.46 118.715 179.72 118.715 178.9C118.715 178.06 118.84 177.3 119.09 176.62C119.34 175.94 119.685 175.365 120.125 174.895C120.575 174.425 121.105 174.065 121.715 173.815C122.325 173.555 122.99 173.425 123.71 173.425C124.43 173.425 125.095 173.555 125.705 173.815C126.325 174.065 126.855 174.425 127.295 174.895C127.745 175.365 128.095 175.94 128.345 176.62C128.605 177.3 128.735 178.06 128.735 178.9ZM125.87 178.9C125.87 178.32 125.815 177.835 125.705 177.445C125.595 177.055 125.44 176.74 125.24 176.5C125.05 176.26 124.82 176.09 124.55 175.99C124.29 175.88 124.01 175.825 123.71 175.825C123.41 175.825 123.13 175.88 122.87 175.99C122.61 176.09 122.385 176.26 122.195 176.5C122.005 176.74 121.855 177.055 121.745 177.445C121.645 177.835 121.595 178.32 121.595 178.9C121.595 179.46 121.645 179.93 121.745 180.31C121.855 180.69 122.005 180.995 122.195 181.225C122.385 181.455 122.61 181.62 122.87 181.72C123.13 181.82 123.41 181.87 123.71 181.87C124.01 181.87 124.29 181.82 124.55 181.72C124.82 181.62 125.05 181.455 125.24 181.225C125.44 180.995 125.595 180.69 125.705 180.31C125.815 179.93 125.87 179.46 125.87 178.9Z" fill="url(#paint1_linear_587_803)"/>
<path d="M15.1 215.448L12.988 209.676C12.884 209.42 12.776 209.116 12.664 208.764C12.552 208.412 12.44 208.032 12.328 207.624C12.224 208.032 12.116 208.416 12.004 208.776C11.892 209.128 11.784 209.436 11.68 209.7L9.58 215.448H15.1ZM20.8 222H18.304C18.024 222 17.796 221.932 17.62 221.796C17.444 221.652 17.312 221.476 17.224 221.268L15.928 217.728H8.74L7.444 221.268C7.38 221.452 7.256 221.62 7.072 221.772C6.888 221.924 6.66 222 6.388 222H3.868L10.696 204.648H13.984L20.8 222ZM29.5983 212.832C29.2623 212.424 28.8943 212.136 28.4943 211.968C28.1023 211.8 27.6783 211.716 27.2223 211.716C26.7743 211.716 26.3703 211.8 26.0103 211.968C25.6503 212.136 25.3423 212.392 25.0863 212.736C24.8303 213.072 24.6343 213.504 24.4983 214.032C24.3623 214.552 24.2943 215.168 24.2943 215.88C24.2943 216.6 24.3503 217.212 24.4623 217.716C24.5823 218.212 24.7503 218.62 24.9663 218.94C25.1823 219.252 25.4463 219.48 25.7583 219.624C26.0703 219.76 26.4183 219.828 26.8023 219.828C27.4183 219.828 27.9423 219.7 28.3743 219.444C28.8063 219.188 29.2143 218.824 29.5983 218.352V212.832ZM32.5623 204.168V222H30.7503C30.3583 222 30.1103 221.82 30.0063 221.46L29.7543 220.272C29.2583 220.84 28.6863 221.3 28.0383 221.652C27.3983 222.004 26.6503 222.18 25.7943 222.18C25.1223 222.18 24.5063 222.04 23.9463 221.76C23.3863 221.48 22.9023 221.076 22.4943 220.548C22.0943 220.012 21.7823 219.352 21.5583 218.568C21.3423 217.784 21.2343 216.888 21.2343 215.88C21.2343 214.968 21.3583 214.12 21.6063 213.336C21.8543 212.552 22.2103 211.872 22.6743 211.296C23.1383 210.72 23.6943 210.272 24.3423 209.952C24.9903 209.624 25.7183 209.46 26.5263 209.46C27.2143 209.46 27.8023 209.568 28.2903 209.784C28.7783 210 29.2143 210.292 29.5983 210.66V204.168H32.5623ZM40.9354 209.496C41.8474 209.496 42.6754 209.644 43.4194 209.94C44.1714 210.236 44.8114 210.656 45.3394 211.2C45.8754 211.744 46.2874 212.408 46.5754 213.192C46.8634 213.976 47.0074 214.852 47.0074 215.82C47.0074 216.796 46.8634 217.676 46.5754 218.46C46.2874 219.244 45.8754 219.912 45.3394 220.464C44.8114 221.016 44.1714 221.44 43.4194 221.736C42.6754 222.032 41.8474 222.18 40.9354 222.18C40.0154 222.18 39.1794 222.032 38.4274 221.736C37.6754 221.44 37.0314 221.016 36.4954 220.464C35.9674 219.912 35.5554 219.244 35.2594 218.46C34.9714 217.676 34.8274 216.796 34.8274 215.82C34.8274 214.852 34.9714 213.976 35.2594 213.192C35.5554 212.408 35.9674 211.744 36.4954 211.2C37.0314 210.656 37.6754 210.236 38.4274 209.94C39.1794 209.644 40.0154 209.496 40.9354 209.496ZM40.9354 219.9C41.9594 219.9 42.7154 219.556 43.2034 218.868C43.6994 218.18 43.9474 217.172 43.9474 215.844C43.9474 214.516 43.6994 213.504 43.2034 212.808C42.7154 212.112 41.9594 211.764 40.9354 211.764C39.8954 211.764 39.1234 212.116 38.6194 212.82C38.1234 213.516 37.8754 214.524 37.8754 215.844C37.8754 217.164 38.1234 218.172 38.6194 218.868C39.1234 219.556 39.8954 219.9 40.9354 219.9ZM52.2327 218.808C52.5687 219.216 52.9327 219.504 53.3247 219.672C53.7247 219.84 54.1447 219.924 54.5847 219.924C55.0407 219.924 55.4487 219.844 55.8087 219.684C56.1767 219.516 56.4887 219.26 56.7447 218.916C57.0007 218.564 57.1967 218.12 57.3327 217.584C57.4687 217.04 57.5367 216.392 57.5367 215.64C57.5367 214.288 57.3127 213.312 56.8647 212.712C56.4167 212.104 55.7727 211.8 54.9327 211.8C54.3647 211.8 53.8687 211.932 53.4447 212.196C53.0207 212.452 52.6167 212.816 52.2327 213.288V218.808ZM52.2327 211.2C52.7287 210.68 53.2767 210.268 53.8767 209.964C54.4847 209.652 55.1767 209.496 55.9527 209.496C56.6647 209.496 57.3047 209.636 57.8727 209.916C58.4487 210.196 58.9367 210.6 59.3367 211.128C59.7447 211.648 60.0567 212.28 60.2727 213.024C60.4887 213.768 60.5967 214.604 60.5967 215.532C60.5967 216.532 60.4727 217.44 60.2247 218.256C59.9767 219.072 59.6207 219.772 59.1567 220.356C58.7007 220.932 58.1487 221.38 57.5007 221.7C56.8527 222.02 56.1327 222.18 55.3407 222.18C54.9567 222.18 54.6087 222.14 54.2967 222.06C53.9847 221.988 53.6967 221.884 53.4327 221.748C53.1687 221.612 52.9247 221.448 52.7007 221.256C52.4847 221.056 52.2767 220.836 52.0767 220.596L51.9447 221.424C51.8967 221.632 51.8127 221.78 51.6927 221.868C51.5807 221.956 51.4247 222 51.2247 222H49.2687V204.168H52.2327V211.2ZM70.8179 214.428C70.8179 214.044 70.7619 213.684 70.6499 213.348C70.5459 213.004 70.3859 212.704 70.1699 212.448C69.9539 212.192 69.6779 211.992 69.3419 211.848C69.0139 211.696 68.6299 211.62 68.1899 211.62C67.3339 211.62 66.6579 211.864 66.1619 212.352C65.6739 212.84 65.3619 213.532 65.2259 214.428H70.8179ZM65.1659 216.216C65.2139 216.848 65.3259 217.396 65.5019 217.86C65.6779 218.316 65.9099 218.696 66.1979 219C66.4859 219.296 66.8259 219.52 67.2179 219.672C67.6179 219.816 68.0579 219.888 68.5379 219.888C69.0179 219.888 69.4299 219.832 69.7739 219.72C70.1259 219.608 70.4299 219.484 70.6859 219.348C70.9499 219.212 71.1779 219.088 71.3699 218.976C71.5699 218.864 71.7619 218.808 71.9459 218.808C72.1939 218.808 72.3779 218.9 72.4979 219.084L73.3499 220.164C73.0219 220.548 72.6539 220.872 72.2459 221.136C71.8379 221.392 71.4099 221.6 70.9619 221.76C70.5219 221.912 70.0699 222.02 69.6059 222.084C69.1499 222.148 68.7059 222.18 68.2739 222.18C67.4179 222.18 66.6219 222.04 65.8859 221.76C65.1499 221.472 64.5099 221.052 63.9659 220.5C63.4219 219.94 62.9939 219.252 62.6819 218.436C62.3699 217.612 62.2139 216.66 62.2139 215.58C62.2139 214.74 62.3499 213.952 62.6219 213.216C62.8939 212.472 63.2819 211.828 63.7859 211.284C64.2979 210.732 64.9179 210.296 65.6459 209.976C66.3819 209.656 67.2099 209.496 68.1299 209.496C68.9059 209.496 69.6219 209.62 70.2779 209.868C70.9339 210.116 71.4979 210.48 71.9699 210.96C72.4419 211.432 72.8099 212.016 73.0739 212.712C73.3459 213.4 73.4819 214.188 73.4819 215.076C73.4819 215.524 73.4339 215.828 73.3379 215.988C73.2419 216.14 73.0579 216.216 72.7859 216.216H65.1659ZM87.6501 213.372C88.2421 213.372 88.7581 213.3 89.1981 213.156C89.6381 213.004 90.0021 212.792 90.2901 212.52C90.5861 212.24 90.8061 211.904 90.9501 211.512C91.0941 211.112 91.1661 210.668 91.1661 210.18C91.1661 209.716 91.0941 209.296 90.9501 208.92C90.8061 208.544 90.5901 208.224 90.3021 207.96C90.0141 207.696 89.6501 207.496 89.2101 207.36C88.7701 207.216 88.2501 207.144 87.6501 207.144H85.2381V213.372H87.6501ZM87.6501 204.648C88.8101 204.648 89.8141 204.784 90.6621 205.056C91.5101 205.328 92.2101 205.708 92.7621 206.196C93.3141 206.684 93.7221 207.268 93.9861 207.948C94.2581 208.628 94.3941 209.372 94.3941 210.18C94.3941 211.02 94.2541 211.792 93.9741 212.496C93.6941 213.192 93.2741 213.792 92.7141 214.296C92.1541 214.8 91.4501 215.192 90.6021 215.472C89.7621 215.752 88.7781 215.892 87.6501 215.892H85.2381V222H82.0101V204.648H87.6501ZM99.3186 211.008C99.7986 210.56 100.327 210.196 100.903 209.916C101.479 209.636 102.155 209.496 102.931 209.496C103.603 209.496 104.199 209.612 104.719 209.844C105.239 210.068 105.671 210.388 106.015 210.804C106.367 211.212 106.631 211.704 106.807 212.28C106.991 212.848 107.083 213.476 107.083 214.164V222H104.119V214.164C104.119 213.412 103.947 212.832 103.603 212.424C103.259 212.008 102.735 211.8 102.031 211.8C101.519 211.8 101.039 211.916 100.591 212.148C100.143 212.38 99.7186 212.696 99.3186 213.096V222H96.3546V204.168H99.3186V211.008ZM115.35 209.496C116.262 209.496 117.09 209.644 117.834 209.94C118.586 210.236 119.226 210.656 119.754 211.2C120.289 211.744 120.701 212.408 120.99 213.192C121.278 213.976 121.422 214.852 121.422 215.82C121.422 216.796 121.278 217.676 120.99 218.46C120.701 219.244 120.289 219.912 119.754 220.464C119.226 221.016 118.586 221.44 117.834 221.736C117.09 222.032 116.262 222.18 115.35 222.18C114.43 222.18 113.594 222.032 112.842 221.736C112.09 221.44 111.446 221.016 110.91 220.464C110.382 219.912 109.97 219.244 109.674 218.46C109.386 217.676 109.242 216.796 109.242 215.82C109.242 214.852 109.386 213.976 109.674 213.192C109.97 212.408 110.382 211.744 110.91 211.2C111.446 210.656 112.09 210.236 112.842 209.94C113.594 209.644 114.43 209.496 115.35 209.496ZM115.35 219.9C116.374 219.9 117.13 219.556 117.618 218.868C118.114 218.18 118.362 217.172 118.362 215.844C118.362 214.516 118.114 213.504 117.618 212.808C117.13 212.112 116.374 211.764 115.35 211.764C114.31 211.764 113.538 212.116 113.034 212.82C112.538 213.516 112.29 214.524 112.29 215.844C112.29 217.164 112.538 218.172 113.034 218.868C113.538 219.556 114.31 219.9 115.35 219.9ZM127.552 222.192C126.48 222.192 125.656 221.892 125.08 221.292C124.512 220.684 124.228 219.848 124.228 218.784V211.908H122.968C122.808 211.908 122.672 211.856 122.56 211.752C122.448 211.648 122.392 211.492 122.392 211.284V210.108L124.372 209.784L124.996 206.424C125.036 206.264 125.112 206.14 125.224 206.052C125.336 205.964 125.48 205.92 125.656 205.92H127.192V209.796H130.48V211.908H127.192V218.58C127.192 218.964 127.284 219.264 127.468 219.48C127.66 219.696 127.92 219.804 128.248 219.804C128.432 219.804 128.584 219.784 128.704 219.744C128.832 219.696 128.94 219.648 129.028 219.6C129.124 219.552 129.208 219.508 129.28 219.468C129.352 219.42 129.424 219.396 129.496 219.396C129.584 219.396 129.656 219.42 129.712 219.468C129.768 219.508 129.828 219.572 129.892 219.66L130.78 221.1C130.348 221.46 129.852 221.732 129.292 221.916C128.732 222.1 128.152 222.192 127.552 222.192ZM137.732 209.496C138.644 209.496 139.472 209.644 140.216 209.94C140.968 210.236 141.608 210.656 142.136 211.2C142.672 211.744 143.084 212.408 143.372 213.192C143.66 213.976 143.804 214.852 143.804 215.82C143.804 216.796 143.66 217.676 143.372 218.46C143.084 219.244 142.672 219.912 142.136 220.464C141.608 221.016 140.968 221.44 140.216 221.736C139.472 222.032 138.644 222.18 137.732 222.18C136.812 222.18 135.976 222.032 135.224 221.736C134.472 221.44 133.828 221.016 133.292 220.464C132.764 219.912 132.352 219.244 132.056 218.46C131.768 217.676 131.624 216.796 131.624 215.82C131.624 214.852 131.768 213.976 132.056 213.192C132.352 212.408 132.764 211.744 133.292 211.2C133.828 210.656 134.472 210.236 135.224 209.94C135.976 209.644 136.812 209.496 137.732 209.496ZM137.732 219.9C138.756 219.9 139.512 219.556 140 218.868C140.496 218.18 140.744 217.172 140.744 215.844C140.744 214.516 140.496 213.504 140 212.808C139.512 212.112 138.756 211.764 137.732 211.764C136.692 211.764 135.92 212.116 135.416 212.82C134.92 213.516 134.672 214.524 134.672 215.844C134.672 217.164 134.92 218.172 135.416 218.868C135.92 219.556 136.692 219.9 137.732 219.9ZM153.578 212.088C153.498 212.216 153.414 212.308 153.326 212.364C153.238 212.412 153.126 212.436 152.99 212.436C152.846 212.436 152.69 212.396 152.522 212.316C152.362 212.236 152.174 212.148 151.958 212.052C151.742 211.948 151.494 211.856 151.214 211.776C150.942 211.696 150.618 211.656 150.242 211.656C149.658 211.656 149.198 211.78 148.862 212.028C148.534 212.276 148.37 212.6 148.37 213C148.37 213.264 148.454 213.488 148.622 213.672C148.798 213.848 149.026 214.004 149.306 214.14C149.594 214.276 149.918 214.4 150.278 214.512C150.638 214.616 151.002 214.732 151.37 214.86C151.746 214.988 152.114 215.136 152.474 215.304C152.834 215.464 153.154 215.672 153.434 215.928C153.722 216.176 153.95 216.476 154.118 216.828C154.294 217.18 154.382 217.604 154.382 218.1C154.382 218.692 154.274 219.24 154.058 219.744C153.85 220.24 153.538 220.672 153.122 221.04C152.706 221.4 152.19 221.684 151.574 221.892C150.966 222.092 150.262 222.192 149.462 222.192C149.038 222.192 148.622 222.152 148.214 222.072C147.814 222 147.426 221.896 147.05 221.76C146.682 221.624 146.338 221.464 146.018 221.28C145.706 221.096 145.43 220.896 145.19 220.68L145.874 219.552C145.962 219.416 146.066 219.312 146.186 219.24C146.306 219.168 146.458 219.132 146.642 219.132C146.826 219.132 146.998 219.184 147.158 219.288C147.326 219.392 147.518 219.504 147.734 219.624C147.95 219.744 148.202 219.856 148.49 219.96C148.786 220.064 149.158 220.116 149.606 220.116C149.958 220.116 150.258 220.076 150.506 219.996C150.762 219.908 150.97 219.796 151.13 219.66C151.298 219.524 151.418 219.368 151.49 219.192C151.57 219.008 151.61 218.82 151.61 218.628C151.61 218.34 151.522 218.104 151.346 217.92C151.178 217.736 150.95 217.576 150.662 217.44C150.382 217.304 150.058 217.184 149.69 217.08C149.33 216.968 148.958 216.848 148.574 216.72C148.198 216.592 147.826 216.444 147.458 216.276C147.098 216.1 146.774 215.88 146.486 215.616C146.206 215.352 145.978 215.028 145.802 214.644C145.634 214.26 145.55 213.796 145.55 213.252C145.55 212.748 145.65 212.268 145.85 211.812C146.05 211.356 146.342 210.96 146.726 210.624C147.118 210.28 147.602 210.008 148.178 209.808C148.762 209.6 149.434 209.496 150.194 209.496C151.042 209.496 151.814 209.636 152.51 209.916C153.206 210.196 153.786 210.564 154.25 211.02L153.578 212.088ZM159.576 211.008C160.056 210.56 160.584 210.196 161.16 209.916C161.736 209.636 162.412 209.496 163.188 209.496C163.86 209.496 164.456 209.612 164.976 209.844C165.496 210.068 165.928 210.388 166.272 210.804C166.624 211.212 166.888 211.704 167.064 212.28C167.248 212.848 167.34 213.476 167.34 214.164V222H164.376V214.164C164.376 213.412 164.204 212.832 163.86 212.424C163.516 212.008 162.992 211.8 162.288 211.8C161.776 211.8 161.296 211.916 160.848 212.148C160.4 212.38 159.976 212.696 159.576 213.096V222H156.612V204.168H159.576V211.008ZM175.607 209.496C176.519 209.496 177.347 209.644 178.091 209.94C178.843 210.236 179.483 210.656 180.011 211.2C180.547 211.744 180.959 212.408 181.247 213.192C181.535 213.976 181.679 214.852 181.679 215.82C181.679 216.796 181.535 217.676 181.247 218.46C180.959 219.244 180.547 219.912 180.011 220.464C179.483 221.016 178.843 221.44 178.091 221.736C177.347 222.032 176.519 222.18 175.607 222.18C174.687 222.18 173.851 222.032 173.099 221.736C172.347 221.44 171.703 221.016 171.167 220.464C170.639 219.912 170.227 219.244 169.931 218.46C169.643 217.676 169.499 216.796 169.499 215.82C169.499 214.852 169.643 213.976 169.931 213.192C170.227 212.408 170.639 211.744 171.167 211.2C171.703 210.656 172.347 210.236 173.099 209.94C173.851 209.644 174.687 209.496 175.607 209.496ZM175.607 219.9C176.631 219.9 177.387 219.556 177.875 218.868C178.371 218.18 178.619 217.172 178.619 215.844C178.619 214.516 178.371 213.504 177.875 212.808C177.387 212.112 176.631 211.764 175.607 211.764C174.567 211.764 173.795 212.116 173.291 212.82C172.795 213.516 172.547 214.524 172.547 215.844C172.547 217.164 172.795 218.172 173.291 218.868C173.795 219.556 174.567 219.9 175.607 219.9ZM186.905 218.808C187.241 219.216 187.605 219.504 187.997 219.672C188.397 219.84 188.829 219.924 189.293 219.924C189.741 219.924 190.145 219.84 190.505 219.672C190.865 219.504 191.169 219.248 191.417 218.904C191.673 218.56 191.869 218.128 192.005 217.608C192.141 217.08 192.209 216.46 192.209 215.748C192.209 215.028 192.149 214.42 192.029 213.924C191.917 213.42 191.753 213.012 191.537 212.7C191.321 212.388 191.057 212.16 190.745 212.016C190.441 211.872 190.093 211.8 189.701 211.8C189.085 211.8 188.561 211.932 188.129 212.196C187.697 212.452 187.289 212.816 186.905 213.288V218.808ZM186.749 211.368C187.253 210.8 187.825 210.34 188.465 209.988C189.105 209.636 189.857 209.46 190.721 209.46C191.393 209.46 192.005 209.6 192.557 209.88C193.117 210.16 193.597 210.568 193.997 211.104C194.405 211.632 194.717 212.288 194.933 213.072C195.157 213.848 195.269 214.74 195.269 215.748C195.269 216.668 195.145 217.52 194.897 218.304C194.649 219.088 194.293 219.768 193.829 220.344C193.373 220.92 192.817 221.372 192.161 221.7C191.513 222.02 190.785 222.18 189.977 222.18C189.289 222.18 188.701 222.076 188.213 221.868C187.725 221.652 187.289 221.356 186.905 220.98V226.02H183.941V209.688H185.753C186.137 209.688 186.389 209.868 186.509 210.228L186.749 211.368Z" fill="#959595"/>
<defs>
<linearGradient id="paint0_linear_587_803" x1="38.9012" y1="12.2641" x2="166.106" y2="21.9712" gradientUnits="userSpaceOnUse">
<stop stop-color="#FD6F00"/>
<stop offset="1" stop-color="#E46400"/>
</linearGradient>
<linearGradient id="paint1_linear_587_803" x1="72.0698" y1="157.396" x2="130.182" y2="164.787" gradientUnits="userSpaceOnUse">
<stop stop-color="#FD6F00"/>
<stop offset="1" stop-color="#E46400"/>
</linearGradient>
</defs>
</svg>
