<svg width="200" height="227" viewBox="0 0 200 227" fill="none" xmlns="http://www.w3.org/2000/svg">
<path d="M165 64.6605C165 100.204 136.187 129.017 100.644 129.017C65.1004 129.017 36.2871 100.204 36.2871 64.6605C36.2871 29.1174 65.1004 0.304054 100.644 0.304054C136.187 0.304054 165 29.1174 165 64.6605ZM49.1584 64.6605C49.1584 93.095 72.2091 116.146 100.644 116.146C129.078 116.146 152.129 93.095 152.129 64.6605C152.129 36.226 129.078 13.1753 100.644 13.1753C72.2091 13.1753 49.1584 36.226 49.1584 64.6605Z" fill="#D9D9D9" fill-opacity="0.2"/>
<path fill-rule="evenodd" clip-rule="evenodd" d="M87.7612 45.9168C96.1636 44.9854 104.643 44.9854 113.045 45.9168C114.649 46.0943 116.147 46.8074 117.295 47.9408C118.444 49.0743 119.177 50.5619 119.376 52.1633C120.372 60.6749 120.372 69.2735 119.376 77.7851C119.177 79.3865 118.444 80.8741 117.295 82.0076C116.147 83.141 114.649 83.8541 113.045 84.0316C104.643 84.963 96.1636 84.963 87.7612 84.0316C86.1573 83.8541 84.66 83.141 83.5112 82.0076C82.3625 80.8741 81.6293 79.3865 81.4303 77.7851C80.4348 69.2735 80.4348 60.6749 81.4303 52.1633C81.6293 50.5619 82.3625 49.0743 83.5112 47.9408C84.66 46.8074 86.1573 46.0943 87.7612 45.9168ZM113.457 42.2175C104.781 41.2557 96.0253 41.2557 87.3491 42.2175C82.3539 42.7736 78.3194 46.7088 77.7335 51.7288C76.7041 60.5291 76.7041 69.4193 77.7335 78.2196C78.3194 83.2396 82.3514 87.1748 87.3491 87.7334C96.0254 88.6942 104.781 88.6942 113.457 87.7334C118.453 87.1748 122.487 83.2396 123.073 78.2196C124.102 69.4193 124.102 60.5291 123.073 51.7288C122.487 46.7088 118.455 42.7736 113.457 42.215M93.8861 73.6637H90.5543V55.5026C91.756 55.2841 93.4219 55.1203 95.6886 55.1203C98.1465 55.1203 99.949 55.6391 101.123 56.6223C102.216 57.5235 102.926 58.971 102.926 60.6915C102.926 62.4393 102.38 63.8868 101.342 64.8699C100.001 66.2081 97.9007 66.8362 95.5247 66.8362C94.8966 66.8362 94.3231 66.8089 93.8861 66.727V73.6637ZM95.8227 57.6874C94.8966 57.6874 94.2412 57.7693 93.8861 57.8512V64.0779C94.2958 64.1872 94.842 64.2145 95.5247 64.2145C98.0373 64.2145 99.5666 62.9855 99.5666 60.828C99.5666 58.7798 98.1465 57.6874 95.8252 57.6874M107.621 73.6637H104.261V64.6514C104.261 62.849 104.237 61.5654 104.152 60.3638H107.074L107.184 62.9036H107.293C107.948 61.0192 109.505 60.0634 110.925 60.0634C111.253 60.0634 111.446 60.0907 111.72 60.1453V63.3133C111.396 63.242 111.065 63.2053 110.734 63.204C109.123 63.204 108.03 64.2418 107.73 65.7438C107.662 66.0858 107.626 66.4331 107.621 66.7816V73.6637Z" fill="#959595"/>
<path d="M148.867 94.4143C151.906 96.2589 152.898 100.24 150.76 103.079C145.267 110.371 138.269 116.431 130.215 120.832C120.273 126.264 109.073 128.976 97.7469 128.693C86.4209 128.409 75.3704 125.141 65.7124 119.218C56.0543 113.295 48.1309 104.928 42.743 94.9616C37.3552 84.9951 34.6939 73.783 35.028 62.4584C35.3621 51.1338 38.6799 40.098 44.646 30.4666C50.6121 20.8352 59.015 12.9494 69.0055 7.60634C77.0988 3.27791 86.0016 0.742418 95.1108 0.140175C98.6573 -0.094303 101.445 2.91683 101.324 6.46908C101.204 10.0213 98.2163 12.7613 94.6767 13.0844C87.8376 13.7086 81.1698 15.6971 75.0757 18.9564C67.0833 23.2308 60.361 29.5394 55.5881 37.2446C50.8152 44.9497 48.161 53.7783 47.8937 62.838C47.6264 71.8977 49.7554 80.8674 54.0657 88.8405C58.376 96.8137 64.7147 103.508 72.4412 108.246C80.1676 112.984 89.008 115.599 98.0688 115.825C107.13 116.052 116.09 113.883 124.043 109.537C130.108 106.223 135.424 101.733 139.692 96.3531C141.901 93.5686 145.829 92.5698 148.867 94.4143Z" fill="url(#paint0_linear_587_825)"/>
<path d="M86.38 161.327V162.932C86.38 163.412 86.33 163.802 86.23 164.102C86.13 164.392 86.03 164.637 85.93 164.837L77.71 181.757C77.54 182.107 77.3 182.407 76.99 182.657C76.68 182.897 76.265 183.017 75.745 183.017H73.06L81.445 166.442C81.635 166.102 81.82 165.792 82 165.512C82.19 165.222 82.4 164.947 82.63 164.687H72.25C72.02 164.687 71.82 164.602 71.65 164.432C71.48 164.262 71.395 164.062 71.395 163.832V161.327H86.38ZM104.052 172.172C104.052 174.062 103.847 175.707 103.437 177.107C103.037 178.497 102.477 179.647 101.757 180.557C101.047 181.467 100.202 182.147 99.2223 182.597C98.2523 183.037 97.2023 183.257 96.0723 183.257C94.9423 183.257 93.8923 183.037 92.9223 182.597C91.9623 182.147 91.1273 181.467 90.4173 180.557C89.7073 179.647 89.1523 178.497 88.7523 177.107C88.3523 175.707 88.1523 174.062 88.1523 172.172C88.1523 170.272 88.3523 168.627 88.7523 167.237C89.1523 165.847 89.7073 164.697 90.4173 163.787C91.1273 162.877 91.9623 162.202 92.9223 161.762C93.8923 161.312 94.9423 161.087 96.0723 161.087C97.2023 161.087 98.2523 161.312 99.2223 161.762C100.202 162.202 101.047 162.877 101.757 163.787C102.477 164.697 103.037 165.847 103.437 167.237C103.847 168.627 104.052 170.272 104.052 172.172ZM100.227 172.172C100.227 170.602 100.112 169.302 99.8823 168.272C99.6523 167.242 99.3423 166.422 98.9523 165.812C98.5723 165.202 98.1323 164.777 97.6323 164.537C97.1323 164.287 96.6123 164.162 96.0723 164.162C95.5423 164.162 95.0273 164.287 94.5273 164.537C94.0373 164.777 93.6023 165.202 93.2223 165.812C92.8423 166.422 92.5373 167.242 92.3073 168.272C92.0873 169.302 91.9773 170.602 91.9773 172.172C91.9773 173.742 92.0873 175.042 92.3073 176.072C92.5373 177.102 92.8423 177.922 93.2223 178.532C93.6023 179.142 94.0373 179.572 94.5273 179.822C95.0273 180.062 95.5423 180.182 96.0723 180.182C96.6123 180.182 97.1323 180.062 97.6323 179.822C98.1323 179.572 98.5723 179.142 98.9523 178.532C99.3423 177.922 99.6523 177.102 99.8823 176.072C100.112 175.042 100.227 173.742 100.227 172.172ZM115.98 166.577C115.98 167.397 115.84 168.137 115.56 168.797C115.29 169.457 114.925 170.022 114.465 170.492C114.005 170.952 113.47 171.307 112.86 171.557C112.25 171.807 111.615 171.932 110.955 171.932C110.235 171.932 109.57 171.807 108.96 171.557C108.35 171.307 107.82 170.952 107.37 170.492C106.93 170.022 106.585 169.457 106.335 168.797C106.085 168.137 105.96 167.397 105.96 166.577C105.96 165.737 106.085 164.977 106.335 164.297C106.585 163.617 106.93 163.042 107.37 162.572C107.82 162.102 108.35 161.742 108.96 161.492C109.57 161.232 110.235 161.102 110.955 161.102C111.675 161.102 112.34 161.232 112.95 161.492C113.57 161.742 114.105 162.102 114.555 162.572C115.005 163.042 115.355 163.617 115.605 164.297C115.855 164.977 115.98 165.737 115.98 166.577ZM113.13 166.577C113.13 165.997 113.07 165.512 112.95 165.122C112.84 164.732 112.685 164.417 112.485 164.177C112.295 163.937 112.065 163.767 111.795 163.667C111.535 163.557 111.255 163.502 110.955 163.502C110.655 163.502 110.375 163.557 110.115 163.667C109.855 163.767 109.63 163.937 109.44 164.177C109.26 164.417 109.115 164.732 109.005 165.122C108.895 165.512 108.84 165.997 108.84 166.577C108.84 167.137 108.895 167.607 109.005 167.987C109.115 168.357 109.26 168.657 109.44 168.887C109.63 169.117 109.855 169.282 110.115 169.382C110.375 169.482 110.655 169.532 110.955 169.532C111.255 169.532 111.535 169.482 111.795 169.382C112.065 169.282 112.295 169.117 112.485 168.887C112.685 168.657 112.84 168.357 112.95 167.987C113.07 167.607 113.13 167.137 113.13 166.577ZM123.195 161.912C123.325 161.762 123.475 161.627 123.645 161.507C123.825 161.387 124.075 161.327 124.395 161.327H127.095L110.985 182.462C110.855 182.622 110.7 182.757 110.52 182.867C110.34 182.967 110.12 183.017 109.86 183.017H107.1L123.195 161.912ZM128.235 177.917C128.235 178.737 128.095 179.477 127.815 180.137C127.545 180.797 127.18 181.362 126.72 181.832C126.26 182.292 125.725 182.652 125.115 182.912C124.505 183.162 123.87 183.287 123.21 183.287C122.49 183.287 121.825 183.162 121.215 182.912C120.605 182.652 120.075 182.292 119.625 181.832C119.185 181.362 118.84 180.797 118.59 180.137C118.34 179.477 118.215 178.737 118.215 177.917C118.215 177.077 118.34 176.317 118.59 175.637C118.84 174.957 119.185 174.382 119.625 173.912C120.075 173.442 120.605 173.082 121.215 172.832C121.825 172.572 122.49 172.442 123.21 172.442C123.93 172.442 124.595 172.572 125.205 172.832C125.825 173.082 126.355 173.442 126.795 173.912C127.245 174.382 127.595 174.957 127.845 175.637C128.105 176.317 128.235 177.077 128.235 177.917ZM125.37 177.917C125.37 177.337 125.315 176.852 125.205 176.462C125.095 176.072 124.94 175.757 124.74 175.517C124.55 175.277 124.32 175.107 124.05 175.007C123.79 174.897 123.51 174.842 123.21 174.842C122.91 174.842 122.63 174.897 122.37 175.007C122.11 175.107 121.885 175.277 121.695 175.517C121.505 175.757 121.355 176.072 121.245 176.462C121.145 176.852 121.095 177.337 121.095 177.917C121.095 178.477 121.145 178.947 121.245 179.327C121.355 179.707 121.505 180.012 121.695 180.242C121.885 180.472 122.11 180.637 122.37 180.737C122.63 180.837 122.91 180.887 123.21 180.887C123.51 180.887 123.79 180.837 124.05 180.737C124.32 180.637 124.55 180.472 124.74 180.242C124.94 180.012 125.095 179.707 125.205 179.327C125.315 178.947 125.37 178.477 125.37 177.917Z" fill="url(#paint1_linear_587_825)"/>
<path d="M24.6 214.465L22.488 208.693C22.384 208.437 22.276 208.133 22.164 207.781C22.052 207.429 21.94 207.049 21.828 206.641C21.724 207.049 21.616 207.433 21.504 207.793C21.392 208.145 21.284 208.453 21.18 208.717L19.08 214.465H24.6ZM30.3 221.017H27.804C27.524 221.017 27.296 220.949 27.12 220.813C26.944 220.669 26.812 220.493 26.724 220.285L25.428 216.745H18.24L16.944 220.285C16.88 220.469 16.756 220.637 16.572 220.789C16.388 220.941 16.16 221.017 15.888 221.017H13.368L20.196 203.665H23.484L30.3 221.017ZM39.0983 211.849C38.7623 211.441 38.3943 211.153 37.9943 210.985C37.6023 210.817 37.1783 210.733 36.7223 210.733C36.2743 210.733 35.8703 210.817 35.5103 210.985C35.1503 211.153 34.8423 211.409 34.5863 211.753C34.3303 212.089 34.1343 212.521 33.9983 213.049C33.8623 213.569 33.7943 214.185 33.7943 214.897C33.7943 215.617 33.8503 216.229 33.9623 216.733C34.0823 217.229 34.2503 217.637 34.4663 217.957C34.6823 218.269 34.9463 218.497 35.2583 218.641C35.5703 218.777 35.9183 218.845 36.3023 218.845C36.9183 218.845 37.4423 218.717 37.8743 218.461C38.3063 218.205 38.7143 217.841 39.0983 217.369V211.849ZM42.0623 203.185V221.017H40.2503C39.8583 221.017 39.6103 220.837 39.5063 220.477L39.2543 219.289C38.7583 219.857 38.1863 220.317 37.5383 220.669C36.8983 221.021 36.1503 221.197 35.2943 221.197C34.6223 221.197 34.0063 221.057 33.4463 220.777C32.8863 220.497 32.4023 220.093 31.9943 219.565C31.5943 219.029 31.2823 218.369 31.0583 217.585C30.8423 216.801 30.7343 215.905 30.7343 214.897C30.7343 213.985 30.8583 213.137 31.1063 212.353C31.3543 211.569 31.7103 210.889 32.1743 210.313C32.6383 209.737 33.1943 209.289 33.8423 208.969C34.4903 208.641 35.2183 208.477 36.0263 208.477C36.7143 208.477 37.3023 208.585 37.7903 208.801C38.2783 209.017 38.7143 209.309 39.0983 209.677V203.185H42.0623ZM50.4354 208.513C51.3474 208.513 52.1754 208.661 52.9194 208.957C53.6714 209.253 54.3114 209.673 54.8394 210.217C55.3754 210.761 55.7874 211.425 56.0754 212.209C56.3634 212.993 56.5074 213.869 56.5074 214.837C56.5074 215.813 56.3634 216.693 56.0754 217.477C55.7874 218.261 55.3754 218.929 54.8394 219.481C54.3114 220.033 53.6714 220.457 52.9194 220.753C52.1754 221.049 51.3474 221.197 50.4354 221.197C49.5154 221.197 48.6794 221.049 47.9274 220.753C47.1754 220.457 46.5314 220.033 45.9954 219.481C45.4674 218.929 45.0554 218.261 44.7594 217.477C44.4714 216.693 44.3274 215.813 44.3274 214.837C44.3274 213.869 44.4714 212.993 44.7594 212.209C45.0554 211.425 45.4674 210.761 45.9954 210.217C46.5314 209.673 47.1754 209.253 47.9274 208.957C48.6794 208.661 49.5154 208.513 50.4354 208.513ZM50.4354 218.917C51.4594 218.917 52.2154 218.573 52.7034 217.885C53.1994 217.197 53.4474 216.189 53.4474 214.861C53.4474 213.533 53.1994 212.521 52.7034 211.825C52.2154 211.129 51.4594 210.781 50.4354 210.781C49.3954 210.781 48.6234 211.133 48.1194 211.837C47.6234 212.533 47.3754 213.541 47.3754 214.861C47.3754 216.181 47.6234 217.189 48.1194 217.885C48.6234 218.573 49.3954 218.917 50.4354 218.917ZM61.7327 217.825C62.0687 218.233 62.4327 218.521 62.8247 218.689C63.2247 218.857 63.6447 218.941 64.0847 218.941C64.5407 218.941 64.9487 218.861 65.3087 218.701C65.6767 218.533 65.9887 218.277 66.2447 217.933C66.5007 217.581 66.6967 217.137 66.8327 216.601C66.9687 216.057 67.0367 215.409 67.0367 214.657C67.0367 213.305 66.8127 212.329 66.3647 211.729C65.9167 211.121 65.2727 210.817 64.4327 210.817C63.8647 210.817 63.3687 210.949 62.9447 211.213C62.5207 211.469 62.1167 211.833 61.7327 212.305V217.825ZM61.7327 210.217C62.2287 209.697 62.7767 209.285 63.3767 208.981C63.9847 208.669 64.6767 208.513 65.4527 208.513C66.1647 208.513 66.8047 208.653 67.3727 208.933C67.9487 209.213 68.4367 209.617 68.8367 210.145C69.2447 210.665 69.5567 211.297 69.7727 212.041C69.9887 212.785 70.0967 213.621 70.0967 214.549C70.0967 215.549 69.9727 216.457 69.7247 217.273C69.4767 218.089 69.1207 218.789 68.6567 219.373C68.2007 219.949 67.6487 220.397 67.0007 220.717C66.3527 221.037 65.6327 221.197 64.8407 221.197C64.4567 221.197 64.1087 221.157 63.7967 221.077C63.4847 221.005 63.1967 220.901 62.9327 220.765C62.6687 220.629 62.4247 220.465 62.2007 220.273C61.9847 220.073 61.7767 219.853 61.5767 219.613L61.4447 220.441C61.3967 220.649 61.3127 220.797 61.1927 220.885C61.0807 220.973 60.9247 221.017 60.7247 221.017H58.7687V203.185H61.7327V210.217ZM80.3179 213.445C80.3179 213.061 80.2619 212.701 80.1499 212.365C80.0459 212.021 79.8859 211.721 79.6699 211.465C79.4539 211.209 79.1779 211.009 78.8419 210.865C78.5139 210.713 78.1299 210.637 77.6899 210.637C76.8339 210.637 76.1579 210.881 75.6619 211.369C75.1739 211.857 74.8619 212.549 74.7259 213.445H80.3179ZM74.6659 215.233C74.7139 215.865 74.8259 216.413 75.0019 216.877C75.1779 217.333 75.4099 217.713 75.6979 218.017C75.9859 218.313 76.3259 218.537 76.7179 218.689C77.1179 218.833 77.5579 218.905 78.0379 218.905C78.5179 218.905 78.9299 218.849 79.2739 218.737C79.6259 218.625 79.9299 218.501 80.1859 218.365C80.4499 218.229 80.6779 218.105 80.8699 217.993C81.0699 217.881 81.2619 217.825 81.4459 217.825C81.6939 217.825 81.8779 217.917 81.9979 218.101L82.8499 219.181C82.5219 219.565 82.1539 219.889 81.7459 220.153C81.3379 220.409 80.9099 220.617 80.4619 220.777C80.0219 220.929 79.5699 221.037 79.1059 221.101C78.6499 221.165 78.2059 221.197 77.7739 221.197C76.9179 221.197 76.1219 221.057 75.3859 220.777C74.6499 220.489 74.0099 220.069 73.4659 219.517C72.9219 218.957 72.4939 218.269 72.1819 217.453C71.8699 216.629 71.7139 215.677 71.7139 214.597C71.7139 213.757 71.8499 212.969 72.1219 212.233C72.3939 211.489 72.7819 210.845 73.2859 210.301C73.7979 209.749 74.4179 209.313 75.1459 208.993C75.8819 208.673 76.7099 208.513 77.6299 208.513C78.4059 208.513 79.1219 208.637 79.7779 208.885C80.4339 209.133 80.9979 209.497 81.4699 209.977C81.9419 210.449 82.3099 211.033 82.5739 211.729C82.8459 212.417 82.9819 213.205 82.9819 214.093C82.9819 214.541 82.9339 214.845 82.8379 215.005C82.7419 215.157 82.5579 215.233 82.2859 215.233H74.6659ZM97.1501 212.389C97.7421 212.389 98.2581 212.317 98.6981 212.173C99.1381 212.021 99.5021 211.809 99.7901 211.537C100.086 211.257 100.306 210.921 100.45 210.529C100.594 210.129 100.666 209.685 100.666 209.197C100.666 208.733 100.594 208.313 100.45 207.937C100.306 207.561 100.09 207.241 99.8021 206.977C99.5141 206.713 99.1501 206.513 98.7101 206.377C98.2701 206.233 97.7501 206.161 97.1501 206.161H94.7381V212.389H97.1501ZM97.1501 203.665C98.3101 203.665 99.3141 203.801 100.162 204.073C101.01 204.345 101.71 204.725 102.262 205.213C102.814 205.701 103.222 206.285 103.486 206.965C103.758 207.645 103.894 208.389 103.894 209.197C103.894 210.037 103.754 210.809 103.474 211.513C103.194 212.209 102.774 212.809 102.214 213.313C101.654 213.817 100.95 214.209 100.102 214.489C99.2621 214.769 98.2781 214.909 97.1501 214.909H94.7381V221.017H91.5101V203.665H97.1501ZM108.51 210.841C108.894 210.105 109.35 209.529 109.878 209.113C110.406 208.689 111.03 208.477 111.75 208.477C112.318 208.477 112.774 208.601 113.118 208.849L112.926 211.069C112.886 211.213 112.826 211.317 112.746 211.381C112.674 211.437 112.574 211.465 112.446 211.465C112.326 211.465 112.146 211.445 111.906 211.405C111.674 211.365 111.446 211.345 111.222 211.345C110.894 211.345 110.602 211.393 110.346 211.489C110.09 211.585 109.858 211.725 109.65 211.909C109.45 212.085 109.27 212.301 109.11 212.557C108.958 212.813 108.814 213.105 108.678 213.433V221.017H105.714V208.705H107.454C107.758 208.705 107.97 208.761 108.09 208.873C108.21 208.977 108.29 209.169 108.33 209.449L108.51 210.841ZM122.248 213.445C122.248 213.061 122.192 212.701 122.08 212.365C121.976 212.021 121.816 211.721 121.6 211.465C121.384 211.209 121.108 211.009 120.772 210.865C120.444 210.713 120.06 210.637 119.62 210.637C118.764 210.637 118.088 210.881 117.592 211.369C117.104 211.857 116.792 212.549 116.656 213.445H122.248ZM116.596 215.233C116.644 215.865 116.756 216.413 116.932 216.877C117.108 217.333 117.34 217.713 117.628 218.017C117.916 218.313 118.256 218.537 118.648 218.689C119.048 218.833 119.488 218.905 119.968 218.905C120.448 218.905 120.86 218.849 121.204 218.737C121.556 218.625 121.86 218.501 122.116 218.365C122.38 218.229 122.608 218.105 122.8 217.993C123 217.881 123.192 217.825 123.376 217.825C123.624 217.825 123.808 217.917 123.928 218.101L124.78 219.181C124.452 219.565 124.084 219.889 123.676 220.153C123.268 220.409 122.84 220.617 122.392 220.777C121.952 220.929 121.5 221.037 121.036 221.101C120.58 221.165 120.136 221.197 119.704 221.197C118.848 221.197 118.052 221.057 117.316 220.777C116.58 220.489 115.94 220.069 115.396 219.517C114.852 218.957 114.424 218.269 114.112 217.453C113.8 216.629 113.644 215.677 113.644 214.597C113.644 213.757 113.78 212.969 114.052 212.233C114.324 211.489 114.712 210.845 115.216 210.301C115.728 209.749 116.348 209.313 117.076 208.993C117.812 208.673 118.64 208.513 119.56 208.513C120.336 208.513 121.052 208.637 121.708 208.885C122.364 209.133 122.928 209.497 123.4 209.977C123.872 210.449 124.24 211.033 124.504 211.729C124.776 212.417 124.912 213.205 124.912 214.093C124.912 214.541 124.864 214.845 124.768 215.005C124.672 215.157 124.488 215.233 124.216 215.233H116.596ZM127.136 221.017V208.705H128.948C129.332 208.705 129.584 208.885 129.704 209.245L129.896 210.157C130.112 209.917 130.336 209.697 130.568 209.497C130.808 209.297 131.06 209.125 131.324 208.981C131.596 208.837 131.884 208.725 132.188 208.645C132.5 208.557 132.84 208.513 133.208 208.513C133.984 208.513 134.62 208.725 135.116 209.149C135.62 209.565 135.996 210.121 136.244 210.817C136.436 210.409 136.676 210.061 136.964 209.773C137.252 209.477 137.568 209.237 137.912 209.053C138.256 208.869 138.62 208.733 139.004 208.645C139.396 208.557 139.788 208.513 140.18 208.513C140.86 208.513 141.464 208.617 141.992 208.825C142.52 209.033 142.964 209.337 143.324 209.737C143.684 210.137 143.956 210.625 144.14 211.201C144.332 211.777 144.428 212.437 144.428 213.181V221.017H141.464V213.181C141.464 212.397 141.292 211.809 140.948 211.417C140.604 211.017 140.1 210.817 139.436 210.817C139.132 210.817 138.848 210.869 138.584 210.973C138.328 211.077 138.1 211.229 137.9 211.429C137.708 211.621 137.556 211.865 137.444 212.161C137.332 212.457 137.276 212.797 137.276 213.181V221.017H134.3V213.181C134.3 212.357 134.132 211.757 133.796 211.381C133.468 211.005 132.984 210.817 132.344 210.817C131.912 210.817 131.508 210.925 131.132 211.141C130.764 211.349 130.42 211.637 130.1 212.005V221.017H127.136ZM150.317 208.705V221.017H147.341V208.705H150.317ZM150.725 205.117C150.725 205.373 150.673 205.613 150.569 205.837C150.465 206.061 150.325 206.257 150.149 206.425C149.981 206.593 149.781 206.729 149.549 206.833C149.317 206.929 149.069 206.977 148.805 206.977C148.549 206.977 148.305 206.929 148.073 206.833C147.849 206.729 147.653 206.593 147.485 206.425C147.317 206.257 147.181 206.061 147.077 205.837C146.981 205.613 146.933 205.373 146.933 205.117C146.933 204.853 146.981 204.605 147.077 204.373C147.181 204.141 147.317 203.941 147.485 203.773C147.653 203.605 147.849 203.473 148.073 203.377C148.305 203.273 148.549 203.221 148.805 203.221C149.069 203.221 149.317 203.273 149.549 203.377C149.781 203.473 149.981 203.605 150.149 203.773C150.325 203.941 150.465 204.141 150.569 204.373C150.673 204.605 150.725 204.853 150.725 205.117ZM161.271 213.445C161.271 213.061 161.215 212.701 161.103 212.365C160.999 212.021 160.839 211.721 160.623 211.465C160.407 211.209 160.131 211.009 159.795 210.865C159.467 210.713 159.083 210.637 158.643 210.637C157.787 210.637 157.111 210.881 156.615 211.369C156.127 211.857 155.815 212.549 155.679 213.445H161.271ZM155.619 215.233C155.667 215.865 155.779 216.413 155.955 216.877C156.131 217.333 156.363 217.713 156.651 218.017C156.939 218.313 157.279 218.537 157.671 218.689C158.071 218.833 158.511 218.905 158.991 218.905C159.471 218.905 159.883 218.849 160.227 218.737C160.579 218.625 160.883 218.501 161.139 218.365C161.403 218.229 161.631 218.105 161.823 217.993C162.023 217.881 162.215 217.825 162.399 217.825C162.647 217.825 162.831 217.917 162.951 218.101L163.803 219.181C163.475 219.565 163.107 219.889 162.699 220.153C162.291 220.409 161.863 220.617 161.415 220.777C160.975 220.929 160.523 221.037 160.059 221.101C159.603 221.165 159.159 221.197 158.727 221.197C157.871 221.197 157.075 221.057 156.339 220.777C155.603 220.489 154.963 220.069 154.419 219.517C153.875 218.957 153.447 218.269 153.135 217.453C152.823 216.629 152.667 215.677 152.667 214.597C152.667 213.757 152.803 212.969 153.075 212.233C153.347 211.489 153.735 210.845 154.239 210.301C154.751 209.749 155.371 209.313 156.099 208.993C156.835 208.673 157.663 208.513 158.583 208.513C159.359 208.513 160.075 208.637 160.731 208.885C161.387 209.133 161.951 209.497 162.423 209.977C162.895 210.449 163.263 211.033 163.527 211.729C163.799 212.417 163.935 213.205 163.935 214.093C163.935 214.541 163.887 214.845 163.791 215.005C163.695 215.157 163.511 215.233 163.239 215.233H155.619ZM168.955 210.841C169.339 210.105 169.795 209.529 170.323 209.113C170.851 208.689 171.475 208.477 172.195 208.477C172.763 208.477 173.219 208.601 173.563 208.849L173.371 211.069C173.331 211.213 173.271 211.317 173.191 211.381C173.119 211.437 173.019 211.465 172.891 211.465C172.771 211.465 172.591 211.445 172.351 211.405C172.119 211.365 171.891 211.345 171.667 211.345C171.339 211.345 171.047 211.393 170.791 211.489C170.535 211.585 170.303 211.725 170.095 211.909C169.895 212.085 169.715 212.301 169.555 212.557C169.403 212.813 169.259 213.105 169.123 213.433V221.017H166.159V208.705H167.899C168.203 208.705 168.415 208.761 168.535 208.873C168.655 208.977 168.735 209.169 168.775 209.449L168.955 210.841ZM182.693 213.445C182.693 213.061 182.637 212.701 182.525 212.365C182.421 212.021 182.261 211.721 182.045 211.465C181.829 211.209 181.553 211.009 181.217 210.865C180.889 210.713 180.505 210.637 180.065 210.637C179.209 210.637 178.533 210.881 178.037 211.369C177.549 211.857 177.237 212.549 177.101 213.445H182.693ZM177.041 215.233C177.089 215.865 177.201 216.413 177.377 216.877C177.553 217.333 177.785 217.713 178.073 218.017C178.361 218.313 178.701 218.537 179.093 218.689C179.493 218.833 179.933 218.905 180.413 218.905C180.893 218.905 181.305 218.849 181.649 218.737C182.001 218.625 182.305 218.501 182.561 218.365C182.825 218.229 183.053 218.105 183.245 217.993C183.445 217.881 183.637 217.825 183.821 217.825C184.069 217.825 184.253 217.917 184.373 218.101L185.225 219.181C184.897 219.565 184.529 219.889 184.121 220.153C183.713 220.409 183.285 220.617 182.837 220.777C182.397 220.929 181.945 221.037 181.481 221.101C181.025 221.165 180.581 221.197 180.149 221.197C179.293 221.197 178.497 221.057 177.761 220.777C177.025 220.489 176.385 220.069 175.841 219.517C175.297 218.957 174.869 218.269 174.557 217.453C174.245 216.629 174.089 215.677 174.089 214.597C174.089 213.757 174.225 212.969 174.497 212.233C174.769 211.489 175.157 210.845 175.661 210.301C176.173 209.749 176.793 209.313 177.521 208.993C178.257 208.673 179.085 208.513 180.005 208.513C180.781 208.513 181.497 208.637 182.153 208.885C182.809 209.133 183.373 209.497 183.845 209.977C184.317 210.449 184.685 211.033 184.949 211.729C185.221 212.417 185.357 213.205 185.357 214.093C185.357 214.541 185.309 214.845 185.213 215.005C185.117 215.157 184.933 215.233 184.661 215.233H177.041Z" fill="#959595"/>
<defs>
<linearGradient id="paint0_linear_587_825" x1="38.3675" y1="12.1427" x2="164.313" y2="21.7537" gradientUnits="userSpaceOnUse">
<stop stop-color="#FD6F00"/>
<stop offset="1" stop-color="#E46400"/>
</linearGradient>
<linearGradient id="paint1_linear_587_825" x1="71.5698" y1="156.413" x2="129.682" y2="163.804" gradientUnits="userSpaceOnUse">
<stop stop-color="#FD6F00"/>
<stop offset="1" stop-color="#E46400"/>
</linearGradient>
</defs>
</svg>
