<svg width="201" height="227" viewBox="0 0 201 227" fill="none" xmlns="http://www.w3.org/2000/svg">
<path d="M165.25 65C165.25 100.899 136.149 130 100.25 130C64.3515 130 35.25 100.899 35.25 65C35.25 29.1015 64.3515 0 100.25 0C136.149 0 165.25 29.1015 165.25 65ZM48.25 65C48.25 93.7188 71.5312 117 100.25 117C128.969 117 152.25 93.7188 152.25 65C152.25 36.2812 128.969 13 100.25 13C71.5312 13 48.25 36.2812 48.25 65Z" fill="#D9D9D9" fill-opacity="0.2"/>
<path d="M165.25 65C165.25 100.899 136.149 130 100.25 130C64.3515 130 35.25 100.899 35.25 65C35.25 29.1015 64.3515 0 100.25 0C136.149 0 165.25 29.1015 165.25 65ZM48.25 65C48.25 93.7188 71.5312 117 100.25 117C128.969 117 152.25 93.7188 152.25 65C152.25 36.2812 128.969 13 100.25 13C71.5312 13 48.25 36.2812 48.25 65Z" fill="url(#paint0_linear_587_792)"/>
<path d="M87.7114 54.9692L97.7423 75.0309M87.7114 75.0309L97.7423 54.9692M122.819 52.4615V77.5386C122.819 80.199 121.763 82.7504 119.881 84.6315C118 86.5127 115.449 87.5695 112.789 87.5695H87.7114C85.0511 87.5695 82.4997 86.5127 80.6185 84.6315C78.7374 82.7504 77.6805 80.199 77.6805 77.5386V52.4615C77.6805 49.8011 78.7374 47.2497 80.6185 45.3686C82.4997 43.4874 85.0511 42.4306 87.7114 42.4306H112.789C115.449 42.4306 118 43.4874 119.881 45.3686C121.763 47.2497 122.819 49.8011 122.819 52.4615Z" stroke="#959595" stroke-width="4" stroke-linecap="round" stroke-linejoin="round"/>
<path d="M112.789 65.0001V73.5263C112.789 73.7239 112.75 73.9195 112.674 74.1021C112.598 74.2846 112.488 74.4505 112.348 74.5902C112.208 74.7299 112.042 74.8408 111.86 74.9164C111.677 74.992 111.482 75.0309 111.284 75.0309H107.773C106.443 75.0309 105.167 74.5025 104.227 73.5619C103.286 72.6214 102.758 71.3457 102.758 70.0155C102.758 68.6853 103.286 67.4096 104.227 66.469C105.167 65.5285 106.443 65.0001 107.773 65.0001H112.789ZM112.789 65.0001V57.4769" stroke="#959595" stroke-width="4" stroke-linecap="round" stroke-linejoin="round"/>
<path d="M77.275 181.225V184H65.275V181.225H69.67V168.58C69.67 168.08 69.685 167.565 69.715 167.035L66.595 169.645C66.415 169.785 66.235 169.875 66.055 169.915C65.885 169.945 65.72 169.945 65.56 169.915C65.41 169.885 65.275 169.835 65.155 169.765C65.035 169.685 64.945 169.6 64.885 169.51L63.715 167.905L70.33 162.28H73.375V181.225H77.275ZM95.8023 173.155C95.8023 175.045 95.5973 176.69 95.1873 178.09C94.7873 179.48 94.2273 180.63 93.5073 181.54C92.7973 182.45 91.9523 183.13 90.9723 183.58C90.0023 184.02 88.9523 184.24 87.8223 184.24C86.6923 184.24 85.6423 184.02 84.6723 183.58C83.7123 183.13 82.8773 182.45 82.1673 181.54C81.4573 180.63 80.9023 179.48 80.5023 178.09C80.1023 176.69 79.9023 175.045 79.9023 173.155C79.9023 171.255 80.1023 169.61 80.5023 168.22C80.9023 166.83 81.4573 165.68 82.1673 164.77C82.8773 163.86 83.7123 163.185 84.6723 162.745C85.6423 162.295 86.6923 162.07 87.8223 162.07C88.9523 162.07 90.0023 162.295 90.9723 162.745C91.9523 163.185 92.7973 163.86 93.5073 164.77C94.2273 165.68 94.7873 166.83 95.1873 168.22C95.5973 169.61 95.8023 171.255 95.8023 173.155ZM91.9773 173.155C91.9773 171.585 91.8623 170.285 91.6323 169.255C91.4023 168.225 91.0923 167.405 90.7023 166.795C90.3223 166.185 89.8823 165.76 89.3823 165.52C88.8823 165.27 88.3623 165.145 87.8223 165.145C87.2923 165.145 86.7773 165.27 86.2773 165.52C85.7873 165.76 85.3523 166.185 84.9723 166.795C84.5923 167.405 84.2873 168.225 84.0573 169.255C83.8373 170.285 83.7273 171.585 83.7273 173.155C83.7273 174.725 83.8373 176.025 84.0573 177.055C84.2873 178.085 84.5923 178.905 84.9723 179.515C85.3523 180.125 85.7873 180.555 86.2773 180.805C86.7773 181.045 87.2923 181.165 87.8223 181.165C88.3623 181.165 88.8823 181.045 89.3823 180.805C89.8823 180.555 90.3223 180.125 90.7023 179.515C91.0923 178.905 91.4023 178.085 91.6323 177.055C91.8623 176.025 91.9773 174.725 91.9773 173.155ZM113.205 173.155C113.205 175.045 113 176.69 112.59 178.09C112.19 179.48 111.63 180.63 110.91 181.54C110.2 182.45 109.355 183.13 108.375 183.58C107.405 184.02 106.355 184.24 105.225 184.24C104.095 184.24 103.045 184.02 102.075 183.58C101.115 183.13 100.28 182.45 99.5697 181.54C98.8597 180.63 98.3047 179.48 97.9047 178.09C97.5047 176.69 97.3047 175.045 97.3047 173.155C97.3047 171.255 97.5047 169.61 97.9047 168.22C98.3047 166.83 98.8597 165.68 99.5697 164.77C100.28 163.86 101.115 163.185 102.075 162.745C103.045 162.295 104.095 162.07 105.225 162.07C106.355 162.07 107.405 162.295 108.375 162.745C109.355 163.185 110.2 163.86 110.91 164.77C111.63 165.68 112.19 166.83 112.59 168.22C113 169.61 113.205 171.255 113.205 173.155ZM109.38 173.155C109.38 171.585 109.265 170.285 109.035 169.255C108.805 168.225 108.495 167.405 108.105 166.795C107.725 166.185 107.285 165.76 106.785 165.52C106.285 165.27 105.765 165.145 105.225 165.145C104.695 165.145 104.18 165.27 103.68 165.52C103.19 165.76 102.755 166.185 102.375 166.795C101.995 167.405 101.69 168.225 101.46 169.255C101.24 170.285 101.13 171.585 101.13 173.155C101.13 174.725 101.24 176.025 101.46 177.055C101.69 178.085 101.995 178.905 102.375 179.515C102.755 180.125 103.19 180.555 103.68 180.805C104.18 181.045 104.695 181.165 105.225 181.165C105.765 181.165 106.285 181.045 106.785 180.805C107.285 180.555 107.725 180.125 108.105 179.515C108.495 178.905 108.805 178.085 109.035 177.055C109.265 176.025 109.38 174.725 109.38 173.155ZM125.132 167.56C125.132 168.38 124.992 169.12 124.712 169.78C124.442 170.44 124.077 171.005 123.617 171.475C123.157 171.935 122.622 172.29 122.012 172.54C121.402 172.79 120.767 172.915 120.107 172.915C119.387 172.915 118.722 172.79 118.112 172.54C117.502 172.29 116.972 171.935 116.522 171.475C116.082 171.005 115.737 170.44 115.487 169.78C115.237 169.12 115.112 168.38 115.112 167.56C115.112 166.72 115.237 165.96 115.487 165.28C115.737 164.6 116.082 164.025 116.522 163.555C116.972 163.085 117.502 162.725 118.112 162.475C118.722 162.215 119.387 162.085 120.107 162.085C120.827 162.085 121.492 162.215 122.102 162.475C122.722 162.725 123.257 163.085 123.707 163.555C124.157 164.025 124.507 164.6 124.757 165.28C125.007 165.96 125.132 166.72 125.132 167.56ZM122.282 167.56C122.282 166.98 122.222 166.495 122.102 166.105C121.992 165.715 121.837 165.4 121.637 165.16C121.447 164.92 121.217 164.75 120.947 164.65C120.687 164.54 120.407 164.485 120.107 164.485C119.807 164.485 119.527 164.54 119.267 164.65C119.007 164.75 118.782 164.92 118.592 165.16C118.412 165.4 118.267 165.715 118.157 166.105C118.047 166.495 117.992 166.98 117.992 167.56C117.992 168.12 118.047 168.59 118.157 168.97C118.267 169.34 118.412 169.64 118.592 169.87C118.782 170.1 119.007 170.265 119.267 170.365C119.527 170.465 119.807 170.515 120.107 170.515C120.407 170.515 120.687 170.465 120.947 170.365C121.217 170.265 121.447 170.1 121.637 169.87C121.837 169.64 121.992 169.34 122.102 168.97C122.222 168.59 122.282 168.12 122.282 167.56ZM132.347 162.895C132.477 162.745 132.627 162.61 132.797 162.49C132.977 162.37 133.227 162.31 133.547 162.31H136.247L120.137 183.445C120.007 183.605 119.852 183.74 119.672 183.85C119.492 183.95 119.272 184 119.012 184H116.252L132.347 162.895ZM137.387 178.9C137.387 179.72 137.247 180.46 136.967 181.12C136.697 181.78 136.332 182.345 135.872 182.815C135.412 183.275 134.877 183.635 134.267 183.895C133.657 184.145 133.022 184.27 132.362 184.27C131.642 184.27 130.977 184.145 130.367 183.895C129.757 183.635 129.227 183.275 128.777 182.815C128.337 182.345 127.992 181.78 127.742 181.12C127.492 180.46 127.367 179.72 127.367 178.9C127.367 178.06 127.492 177.3 127.742 176.62C127.992 175.94 128.337 175.365 128.777 174.895C129.227 174.425 129.757 174.065 130.367 173.815C130.977 173.555 131.642 173.425 132.362 173.425C133.082 173.425 133.747 173.555 134.357 173.815C134.977 174.065 135.507 174.425 135.947 174.895C136.397 175.365 136.747 175.94 136.997 176.62C137.257 177.3 137.387 178.06 137.387 178.9ZM134.522 178.9C134.522 178.32 134.467 177.835 134.357 177.445C134.247 177.055 134.092 176.74 133.892 176.5C133.702 176.26 133.472 176.09 133.202 175.99C132.942 175.88 132.662 175.825 132.362 175.825C132.062 175.825 131.782 175.88 131.522 175.99C131.262 176.09 131.037 176.26 130.847 176.5C130.657 176.74 130.507 177.055 130.397 177.445C130.297 177.835 130.247 178.32 130.247 178.9C130.247 179.46 130.297 179.93 130.397 180.31C130.507 180.69 130.657 180.995 130.847 181.225C131.037 181.455 131.262 181.62 131.522 181.72C131.782 181.82 132.062 181.87 132.362 181.87C132.662 181.87 132.942 181.82 133.202 181.72C133.472 181.62 133.702 181.455 133.892 181.225C134.092 180.995 134.247 180.69 134.357 180.31C134.467 179.93 134.522 179.46 134.522 178.9Z" fill="url(#paint1_linear_587_792)"/>
<path d="M55.85 215.448L53.738 209.676C53.634 209.42 53.526 209.116 53.414 208.764C53.302 208.412 53.19 208.032 53.078 207.624C52.974 208.032 52.866 208.416 52.754 208.776C52.642 209.128 52.534 209.436 52.43 209.7L50.33 215.448H55.85ZM61.55 222H59.054C58.774 222 58.546 221.932 58.37 221.796C58.194 221.652 58.062 221.476 57.974 221.268L56.678 217.728H49.49L48.194 221.268C48.13 221.452 48.006 221.62 47.822 221.772C47.638 221.924 47.41 222 47.138 222H44.618L51.446 204.648H54.734L61.55 222ZM70.3483 212.832C70.0123 212.424 69.6443 212.136 69.2443 211.968C68.8523 211.8 68.4283 211.716 67.9723 211.716C67.5243 211.716 67.1203 211.8 66.7603 211.968C66.4003 212.136 66.0923 212.392 65.8363 212.736C65.5803 213.072 65.3843 213.504 65.2483 214.032C65.1123 214.552 65.0443 215.168 65.0443 215.88C65.0443 216.6 65.1003 217.212 65.2123 217.716C65.3323 218.212 65.5003 218.62 65.7163 218.94C65.9323 219.252 66.1963 219.48 66.5083 219.624C66.8203 219.76 67.1683 219.828 67.5523 219.828C68.1683 219.828 68.6923 219.7 69.1243 219.444C69.5563 219.188 69.9643 218.824 70.3483 218.352V212.832ZM73.3123 204.168V222H71.5003C71.1083 222 70.8603 221.82 70.7563 221.46L70.5043 220.272C70.0083 220.84 69.4363 221.3 68.7883 221.652C68.1483 222.004 67.4003 222.18 66.5443 222.18C65.8723 222.18 65.2563 222.04 64.6963 221.76C64.1363 221.48 63.6523 221.076 63.2443 220.548C62.8443 220.012 62.5323 219.352 62.3083 218.568C62.0923 217.784 61.9843 216.888 61.9843 215.88C61.9843 214.968 62.1083 214.12 62.3563 213.336C62.6043 212.552 62.9603 211.872 63.4243 211.296C63.8883 210.72 64.4443 210.272 65.0923 209.952C65.7403 209.624 66.4683 209.46 67.2763 209.46C67.9643 209.46 68.5523 209.568 69.0403 209.784C69.5283 210 69.9643 210.292 70.3483 210.66V204.168H73.3123ZM81.6854 209.496C82.5974 209.496 83.4254 209.644 84.1694 209.94C84.9214 210.236 85.5614 210.656 86.0894 211.2C86.6254 211.744 87.0374 212.408 87.3254 213.192C87.6134 213.976 87.7574 214.852 87.7574 215.82C87.7574 216.796 87.6134 217.676 87.3254 218.46C87.0374 219.244 86.6254 219.912 86.0894 220.464C85.5614 221.016 84.9214 221.44 84.1694 221.736C83.4254 222.032 82.5974 222.18 81.6854 222.18C80.7654 222.18 79.9294 222.032 79.1774 221.736C78.4254 221.44 77.7814 221.016 77.2454 220.464C76.7174 219.912 76.3054 219.244 76.0094 218.46C75.7214 217.676 75.5774 216.796 75.5774 215.82C75.5774 214.852 75.7214 213.976 76.0094 213.192C76.3054 212.408 76.7174 211.744 77.2454 211.2C77.7814 210.656 78.4254 210.236 79.1774 209.94C79.9294 209.644 80.7654 209.496 81.6854 209.496ZM81.6854 219.9C82.7094 219.9 83.4654 219.556 83.9534 218.868C84.4494 218.18 84.6974 217.172 84.6974 215.844C84.6974 214.516 84.4494 213.504 83.9534 212.808C83.4654 212.112 82.7094 211.764 81.6854 211.764C80.6454 211.764 79.8734 212.116 79.3694 212.82C78.8734 213.516 78.6254 214.524 78.6254 215.844C78.6254 217.164 78.8734 218.172 79.3694 218.868C79.8734 219.556 80.6454 219.9 81.6854 219.9ZM92.9827 218.808C93.3187 219.216 93.6827 219.504 94.0747 219.672C94.4747 219.84 94.8947 219.924 95.3347 219.924C95.7907 219.924 96.1987 219.844 96.5587 219.684C96.9267 219.516 97.2387 219.26 97.4947 218.916C97.7507 218.564 97.9467 218.12 98.0827 217.584C98.2187 217.04 98.2867 216.392 98.2867 215.64C98.2867 214.288 98.0627 213.312 97.6147 212.712C97.1667 212.104 96.5227 211.8 95.6827 211.8C95.1147 211.8 94.6187 211.932 94.1947 212.196C93.7707 212.452 93.3667 212.816 92.9827 213.288V218.808ZM92.9827 211.2C93.4787 210.68 94.0267 210.268 94.6267 209.964C95.2347 209.652 95.9267 209.496 96.7027 209.496C97.4147 209.496 98.0547 209.636 98.6227 209.916C99.1987 210.196 99.6867 210.6 100.087 211.128C100.495 211.648 100.807 212.28 101.023 213.024C101.239 213.768 101.347 214.604 101.347 215.532C101.347 216.532 101.223 217.44 100.975 218.256C100.727 219.072 100.371 219.772 99.9067 220.356C99.4507 220.932 98.8987 221.38 98.2507 221.7C97.6027 222.02 96.8827 222.18 96.0907 222.18C95.7067 222.18 95.3587 222.14 95.0467 222.06C94.7347 221.988 94.4467 221.884 94.1827 221.748C93.9187 221.612 93.6747 221.448 93.4507 221.256C93.2347 221.056 93.0267 220.836 92.8267 220.596L92.6947 221.424C92.6467 221.632 92.5627 221.78 92.4427 221.868C92.3307 221.956 92.1747 222 91.9747 222H90.0187V204.168H92.9827V211.2ZM111.568 214.428C111.568 214.044 111.512 213.684 111.4 213.348C111.296 213.004 111.136 212.704 110.92 212.448C110.704 212.192 110.428 211.992 110.092 211.848C109.764 211.696 109.38 211.62 108.94 211.62C108.084 211.62 107.408 211.864 106.912 212.352C106.424 212.84 106.112 213.532 105.976 214.428H111.568ZM105.916 216.216C105.964 216.848 106.076 217.396 106.252 217.86C106.428 218.316 106.66 218.696 106.948 219C107.236 219.296 107.576 219.52 107.968 219.672C108.368 219.816 108.808 219.888 109.288 219.888C109.768 219.888 110.18 219.832 110.524 219.72C110.876 219.608 111.18 219.484 111.436 219.348C111.7 219.212 111.928 219.088 112.12 218.976C112.32 218.864 112.512 218.808 112.696 218.808C112.944 218.808 113.128 218.9 113.248 219.084L114.1 220.164C113.772 220.548 113.404 220.872 112.996 221.136C112.588 221.392 112.16 221.6 111.712 221.76C111.272 221.912 110.82 222.02 110.356 222.084C109.9 222.148 109.456 222.18 109.024 222.18C108.168 222.18 107.372 222.04 106.636 221.76C105.9 221.472 105.26 221.052 104.716 220.5C104.172 219.94 103.744 219.252 103.432 218.436C103.12 217.612 102.964 216.66 102.964 215.58C102.964 214.74 103.1 213.952 103.372 213.216C103.644 212.472 104.032 211.828 104.536 211.284C105.048 210.732 105.668 210.296 106.396 209.976C107.132 209.656 107.96 209.496 108.88 209.496C109.656 209.496 110.372 209.62 111.028 209.868C111.684 210.116 112.248 210.48 112.72 210.96C113.192 211.432 113.56 212.016 113.824 212.712C114.096 213.4 114.232 214.188 114.232 215.076C114.232 215.524 114.184 215.828 114.088 215.988C113.992 216.14 113.808 216.216 113.536 216.216H105.916ZM136.86 222H133.644C133.42 222 133.24 221.944 133.104 221.832C132.976 221.72 132.872 221.592 132.792 221.448L128.772 214.788C128.708 214.988 128.632 215.16 128.544 215.304L124.692 221.448C124.596 221.584 124.484 221.712 124.356 221.832C124.236 221.944 124.076 222 123.876 222H120.864L126.624 213.072L121.092 204.648H124.308C124.532 204.648 124.692 204.68 124.788 204.744C124.892 204.8 124.988 204.896 125.076 205.032L129.024 211.392C129.104 211.192 129.2 210.992 129.312 210.792L132.936 205.092C133.024 204.94 133.12 204.828 133.224 204.756C133.328 204.684 133.46 204.648 133.62 204.648H136.704L131.124 212.94L136.86 222ZM154.27 213.324C154.27 214.596 154.058 215.764 153.634 216.828C153.21 217.892 152.614 218.808 151.846 219.576C151.078 220.344 150.154 220.94 149.074 221.364C147.994 221.788 146.794 222 145.474 222H138.862V204.648H145.474C146.794 204.648 147.994 204.864 149.074 205.296C150.154 205.72 151.078 206.316 151.846 207.084C152.614 207.844 153.21 208.756 153.634 209.82C154.058 210.884 154.27 212.052 154.27 213.324ZM150.958 213.324C150.958 212.372 150.83 211.52 150.574 210.768C150.326 210.008 149.962 209.368 149.482 208.848C149.01 208.32 148.434 207.916 147.754 207.636C147.082 207.356 146.322 207.216 145.474 207.216H142.102V219.432H145.474C146.322 219.432 147.082 219.292 147.754 219.012C148.434 218.732 149.01 218.332 149.482 217.812C149.962 217.284 150.326 216.644 150.574 215.892C150.83 215.132 150.958 214.276 150.958 213.324Z" fill="#959595"/>
<defs>
<linearGradient id="paint0_linear_587_792" x1="38.6512" y1="12.2641" x2="165.856" y2="21.9712" gradientUnits="userSpaceOnUse">
<stop stop-color="#FD6F00"/>
<stop offset="1" stop-color="#E46400"/>
</linearGradient>
<linearGradient id="paint1_linear_587_792" x1="63.7645" y1="157.396" x2="137.581" y2="169.445" gradientUnits="userSpaceOnUse">
<stop stop-color="#FD6F00"/>
<stop offset="1" stop-color="#E46400"/>
</linearGradient>
</defs>
</svg>
